<svg xmlns="http://www.w3.org/2000/svg" viewBox="0 0 512 512">
  <defs>
    <linearGradient id="splatGradient" x1="0%" y1="0%" x2="100%" y2="100%">
      <stop offset="0%" style="stop-color:#FF7A45"/>
      <stop offset="100%" style="stop-color:#FF5F1F"/>
    </linearGradient>
    <filter id="shadow" x="-20%" y="-20%" width="140%" height="140%">
      <feDropShadow dx="0" dy="4" stdDeviation="8" flood-color="#FF5F1F" flood-opacity="0.3"/>
    </filter>
  </defs>
  <!-- Background circle -->
  <circle cx="256" cy="256" r="240" fill="url(#splatGradient)" filter="url(#shadow)"/>
  <!-- Bold S lettermark -->
  <path 
    d="M320 168c0-44.2-35.8-80-80-80h-72c-13.3 0-24 10.7-24 24s10.7 24 24 24h72c17.7 0 32 14.3 32 32s-14.3 32-32 32H192c-44.2 0-80 35.8-80 80s35.8 80 80 80h72c13.3 0 24-10.7 24-24s-10.7-24-24-24h-72c-17.7 0-32-14.3-32-32s14.3-32 32-32h48c44.2 0 80-35.8 80-80z" 
    fill="white"
  />
</svg>
