<?xml version="1.0" encoding="UTF-8"?>
<svg xmlns="http://www.w3.org/2000/svg" xmlns:xlink="http://www.w3.org/1999/xlink" version="1.1" viewBox="0 0 6783.3 1361.9">
  <defs>
    <style>
      .cls-1 {
        fill: #fed3ba;
      }

      .cls-2 {
        font-family: Roboto-Regular, Roboto;
        font-size: 250px;
      }

      .cls-3 {
        fill: #fee8d9;
      }

      .cls-4 {
        fill: url(#linear-gradient-2);
      }

      .cls-5 {
        fill: url(#linear-gradient);
      }

      .cls-6 {
        fill: #fefcf8;
      }

      .cls-7 {
        fill: #fff;
      }

      .cls-8 {
        fill: #fbf0df;
      }
    </style>
    <linearGradient id="linear-gradient" x1="418.4" y1="-1436.4" x2="419.4" y2="-1435.4" gradientTransform="translate(-428890 1472262.3) scale(1026)" gradientUnits="userSpaceOnUse">
      <stop offset="0" stop-color="#fb923c"/>
      <stop offset="1" stop-color="#ea580c"/>
    </linearGradient>
    <linearGradient id="linear-gradient-2" x1="418" y1="-1435" x2="419.4" y2="-1433.6" xlink:href="#linear-gradient"/>
  </defs>
  <!-- Generator: Adobe Illustrator 28.7.10, SVG Export Plug-In . SVG Version: 1.2.0 Build 236)  -->
  <g>
    <g id="Layer_1">
      <rect class="cls-5" x="392.4" y="-1436.3" width="1026" height="1026" rx="256" ry="256"/>
      <path class="cls-8" d="M959.7-1204.2c0,.2.3.9,1,2.2-2.8.3-4.8.9-5.8,1.7-11,8.4-18.2,19.4-21.5,32.7-2.9,11.6-1.7,22.8,2.8,34,1.6,3.9,3.6,8.4,4.6,13.3-13.1,7.8-27.3,10.5-42.7,7.9h-3.6c-.3-.1-.6-.2-.9-.4-.7-.3-1.1-.7-1.4-1.1-1.5-1.9-4.9-2.1-7.2-3.2-18.6-9.5-31.1-25.5-33.4-46.3-.4-3.1-.2-8.2.4-15.3,0-.5.1-.9.3-1.3l7.5-22.7c6.8-10.2,15.3-17.6,25.7-22.4,22.1-10.1,46.7-6.2,65,9.9,2.8,2.4,5.9,6.1,9.4,11h0Z"/>
      <ellipse class="cls-8" cx="816.1" cy="-1195.8" rx="18.4" ry="18.6" transform="translate(33.7 22.3) rotate(-1.6)"/>
      <path class="cls-3" d="M1062.7-1162.2c-3.9,0-10.5-.3-19.5-1-7.2-.5-14.2,1.1-20.9,4.7-4.2,2.2-7.8,4-10.8,5.3-11,4.9-21.2,3.8-30.6-3-3.5-2.5-6.5-6.7-9.1-12.4-.7-1.4-1.3-4.1-1.9-8-1.4-9.5-3.3-17.8-9.2-25.6-.7-1.2-1-1.9-1-2.2,11.1-5.6,22.3-7.9,33.7-6.9,5.7.5,11.7,2.2,18.1,5.1,16.4,7.5,27.7,23.1,31.1,40.7.1.6.7,1.1,1.3,1.1,6.5,0,12.5.2,18.7,2h0Z"/>
      <path class="cls-1" d="M859.6-1202.6l-7.5,22.7c-.1.4-.2.9-.3,1.3-.6,7-.7,12.1-.4,15.3,2.3,20.8,14.8,36.8,33.4,46.3,2.2,1.1,5.7,1.3,7.2,3.2.3.4.8.7,1.4,1.1.3.1.6.2.9.2h3.6c-18.5.4-40,4.8-52,20.2-2.6,3.4-5,7.2-7,11.5-1.8,3.7-3.1,8-4,12.8-1.7,9.2-1.8,18.6-.3,28.1-1.3-3.8-2-7.2-2.2-10.3-.5-7.3-1-13.2-1.7-17.7-2.4-10.7-6.9-20.3-13.7-28.9-2.1-2.7-5.5-5.7-7.9-8.9l4-5.5c4.6-1,8.8-2.4,12.3-4.4,12.7-7,20.3-21,23-35,1.5-7.8,2.2-14.7,2.2-20.9,0-2.5,0-4.2.3-5.2.5-2.3.4-4.2,1-6.9,1.5-6.8,4.1-13.1,7.7-19.1h0Z"/>
      <path class="cls-6" d="M960.7-1202.1c5.9,7.8,7.8,16,9.2,25.6.6,3.9,1.2,6.5,1.9,8,2.6,5.7,5.6,9.8,9.1,12.4,9.4,6.9,19.6,7.9,30.6,3,3-1.3,6.6-3.1,10.8-5.3,6.7-3.6,13.7-5.2,20.9-4.7,9.1.6,15.6.9,19.5,1,9.1,2.4,17.1,6.5,24,12.2,15.2,12.7,22.8,32.4,21,52.1-2.8,29.5-27.3,52.9-57,54.1-17.3.7-33.3-4.8-45.4-17.1-8.7-8.8-14.3-18.7-16.6-30.5-.5-2.7-1-5.4-1.5-8,0-1.7-.2-3.4-.6-4.9-1.4-6.3-4.5-11.5-9.2-15.8-8.2-7.3-17.3-8.8-27.6-4.4-3.1,1.3-5.3,2.5-6.7,3.4-.6-.3-1.4,0-2.4.7-1-5-3-9.4-4.6-13.3-4.6-11.2-5.8-22.4-2.8-34,3.4-13.4,10.5-24.2,21.5-32.7,1.1-.8,3-1.4,5.8-1.7h0Z"/>
      <path class="cls-3" d="M813.1-1111.2l-4,5.5c-5.7-4.3-10.2-7.4-13.4-9.2-11.2-6.4-23.6-9.4-37-9.2-13.3.2-25.4,3.6-36.3,10.2-3-10.7-2.8-20.6.8-30,7.6-20,25.3-32.7,47-31.8,17.7.7,33.5,12,40.8,27.4,5.2,11.1,5.9,23.4,2.1,37h0Z"/>
      <path class="cls-1" d="M987.2-1099.4c-14.2-.2-26.6-5-37.2-14.3-2.9-2.5-5.2-5-6.9-7.4,1.4-.9,3.6-2.1,6.7-3.4,10.2-4.4,19.5-2.9,27.6,4.4,4.7,4.2,7.8,9.5,9.2,15.8.3,1.5.5,3.2.6,4.9h0Z"/>
      <path class="cls-6" d="M809.1-1105.7c2.4,3.2,5.8,6.2,7.9,8.9,6.8,8.5,11.3,18.2,13.7,28.9.2,7.5.6,14.9,1.1,22.2.7,11,0,20-7.2,28.8-7.4,8.8-15.8,16.9-25.4,24.2-.2.2-.3.5-.2.8,2.1,4.4,5.2,11.6.4,15.4-8.6-2.5-16.5-3.5-23.7-3-10.9.7-19.4,1.7-30.8-.2-6.4-1.1-12.2-3-17.4-5.9-2.1-1.1-5.1-3-9.1-5.7-4.4-3.1-7.7-5.8-9.9-8-13.5-13.8-20.6-30-21.4-48.4-.8-17.5,3.9-33.3,14.3-47.4,5.8-7.8,12.8-14.1,21-18.7,10.9-6.6,23-10,36.3-10.2,13.5-.2,25.8,2.8,37,9.2,3.2,1.8,7.7,4.9,13.4,9.2h0Z"/>
      <path class="cls-8" d="M834.7-1039.8c4.6,16.2,14.3,28.4,28.9,36.6,5,2.8,10.2,5.2,15.7,7.3,2.1,1.5,4.1,2.5,6,3.1,4.2,1.3,8.9,2.8,13.9,4.4,4.9,1.6,8.3,1.5,13.8,2.4,5.9.9,12.7,7,15.9,11.3,1.4,1.8,3,4.7,4.8,8.7,2.4,5.3,3.7,8.3,4,9,2.6,7.2,4.2,17.2,3.2,25.1-2.9,21.1-17.5,37-38.9,39.8-11.3,1.5-23.3-2.2-32.1-8.9-9.7-7.4-15.2-17.8-16.6-31,0-.3-.1-.6-.2-.9-1.7-4.3-3-7.3-4.1-9.2-4.6-7.9-12.3-11-20.8-13.3-.2,0-.4-.2-.5-.4,0,0,0-.2-.1-.3,0,0,0-.1-.2-.1-.1,0-.3,0-.4.2-5.2-8.3-12.6-14.5-22.4-18.5l-5.1-2c4.9-3.8,1.7-11-.4-15.4-.1-.3,0-.6.2-.8,9.6-7.3,18-15.4,25.4-24.2,7.3-8.7,8-17.8,7.2-28.8-.5-7.4-.8-14.8-1.1-22.2.6,4.5,1.2,10.4,1.7,17.7.2,3.1.9,6.5,2.2,10.3h0Z"/>
      <path class="cls-3" d="M879.2-995.9c7.4,2.5,15,4.1,22.8,5,6,.6,10.5,1.2,13.4,1.6,3.9.6,8.9,2,15,4.2,4.5,1.7,9,4.1,13.6,7.5,13.4,9.6,22,22.5,26,38.5.5,2.1,1.2,6.5,1.9,13.1,1.2,11.1,3.7,20.6,7.3,28.5,2.1,4.5,5.4,9.3,9.9,14.3,4,4.5,9.4,8.1,16.1,10.8-18.2,7.6-35.7,21.4-44.3,39.5-14.3-13.5-34.4-21.6-53.3-23.1-8-.6-14-1.4-18.1-2.4-10.6-2.5-20.1-7.5-28.6-14.9-9.2-8-15.7-17.9-19.5-29.8-1.8-5.5-2.6-8.3-3.1-14.1-.8-8.8-2.6-17.6-5.6-26.5-1.4-4.4-3.4-8.5-5.9-12.3.1-.2.3-.2.4-.2,0,0,.1,0,.2.1,0,0,0,.2.1.3.1.2.3.4.5.4,8.5,2.4,16.2,5.4,20.8,13.3,1.1,1.9,2.5,4.9,4.1,9.2.1.3.2.6.2.9,1.4,13.2,6.9,23.5,16.6,31,8.8,6.7,20.7,10.4,32.1,8.9,21.3-2.8,36-18.8,38.9-39.8,1.1-7.9-.6-17.9-3.2-25.1-.2-.7-1.6-3.7-4-9-1.8-4-3.4-6.9-4.8-8.7-3.3-4.2-10-10.4-15.9-11.3-5.5-.9-8.8-.8-13.8-2.4-5-1.6-9.6-3.1-13.9-4.4-1.9-.6-4-1.6-6-3.1h0Z"/>
      <path class="cls-1" d="M799.4-976.5l5.1,2c-.3,7.5-1.6,14.5-3.7,21.1-.2.6.1,1.3.8,1.5h0c3.4,1,6.5,2.5,9.5,4.5l-13.4-5.3c-.1,0-.3,0-.4-.1-19.5-2.1-33.3,13.4-32.4,32.4l-.5-4.5c0-.2-.2-.4-.5-.4h0c-11.6.8-21.7-1.6-30.1-7.4-19.2-13-25.6-37.2-15.4-58.6,4,2.7,7,4.6,9.1,5.7,5.2,2.9,11,4.8,17.4,5.9,11.4,1.9,19.9.9,30.8.2,7.2-.5,15.1.5,23.7,3h0Z"/>
      <path class="cls-8" d="M811-947.4c7.9,6.1,13.6,16.2,12.4,26.4-1.6,13.2-8.5,21.9-20.8,26.2-7.6,2.7-16.2,1.3-23.2-2.8-8.4-4.9-13.2-12.5-14.6-22.9-1-19,12.9-34.4,32.4-32.4.1,0,.3,0,.4.1l13.4,5.3h0Z"/>
      <path class="cls-3" d="M1092.7-855.8c-1-.1-1.5-.3-1.8-.4-9.8-6.8-20.3-10.7-31.5-11.5-7.6-.5-14-.4-19.1.4-11.5,1.8-21.6-.8-32.2-3.5-.3,0-.5-.2-.8-.4-.5-.4-1.3-.7-2.2-1,.8-.1,1.1-.3,1.1-.6-.3-7.1.9-14,3.6-20.8.2-.4,0-.8-.4-1,0,0,0,0,0,0-5.6-1.5-10.3-4.4-14.2-8.7-8.4-9.3-10.1-22-4.6-33.2,6.1-12.3,20.8-19.4,34.5-15.3,8,2.4,13.9,7.3,17.7,14.7,2.5,4.9,3.2,9.3,3.3,15,0,.4.3.7.8.7h0c5.3-.3,10.7-.2,15.6,1,13.6,3.6,23.5,11.5,29.7,23.9,1,2,1.5,3.1,1.6,3.3,5.2,12.4,4.8,24.9-1.1,37.3h0ZM1011.5-894.2c14.9,3.5,34.3-9.1,33.3-25.4,0-.3-.3-.5-.5-.5-14,.3-28.6,12.7-33.1,25.3,0,.2,0,.5.3.6,0,0,0,0,0,0h0Z"/>
      <path class="cls-8" d="M1011.1-894.8c4.5-12.6,19.1-25,33.1-25.3.3,0,.5.2.5.5,1,16.2-18.4,28.9-33.3,25.4-.2,0-.4-.3-.3-.5,0,0,0,0,0,0Z"/>
      <path class="cls-6" d="M1005.3-872.5c.2,0,.2.2-.1.2,1,.3,1.7.6,2.2,1,.2.2.5.3.8.4,10.6,2.7,20.7,5.2,32.2,3.5,5.1-.8,11.5-.9,19.1-.4,11.2.8,21.7,4.6,31.5,11.5.2.2.8.3,1.8.4l.3.5c.2.3.4.6.7.8,30,21.7,38.8,64.5,19.8,96.5-2.2,3.7-5.7,8-8.5,12.1-5.3,5.9-11.7,10.9-19.3,14.9-18.4,9.7-37.4,11.4-57.2,5.1-3.1-1-6.2-2-9.2-2.9l-18.4-13.4c-7.2-7.4-12.9-15.8-17.1-25.4-1-2.2-2.4-6.6-4.2-13,0-.3-.1-.5-.1-.8,0-1.5-.4-3-.9-4.4,0-14.8-2.6-26.8-11-39-1.2-1.7-3.4-4.4-6.6-8,8.6-18.1,26.1-31.9,44.3-39.5h0Z"/>
      <path class="cls-6" d="M816.5-748.4c0,3.1,1.1,6.9,3.3,11.5,4.6,9.7,11.2,17.1,21.5,18.8,7,1.1,13.6.2,20.1-2.7,1.7-.8,3.4-1.5,5.1-2.2-6.6,18-15.5,34.4-25,50.9-5.8-13.5-18-22.7-33-20.3-8.9,1.4-14.5,5.3-22.7,10.5-2.6,1.6-7.5,3.6-14.8,6-9.7,2.5-19,3-27.9,1.4-21.7-4-39.9-18.7-48.4-39.2-4.4-10.7-5.6-22.2-3.8-34.7,5.2-34.1,37.3-57.7,71-53.2,12.7,1.7,23.9,6.8,33.8,15.2,11.4,9.8,18.4,22.6,20.8,38.2Z"/>
      <path class="cls-1" d="M978.6-785.9c.5,1.4.8,2.9.9,4.4,0,.3,0,.5.1.8,1.8,6.4,3.2,10.7,4.2,13,4.2,9.5,9.9,18,17.1,25.4-1,5-1.3,9.7-1,14,0,.4.3.7.7.7h0l18.7-1.2c3,1,6.1,1.9,9.2,2.9,19.8,6.3,38.8,4.6,57.2-5.1,7.6-4,14-9,19.3-14.9,2.2,10.9,1.2,21.2-2.9,31-3.8,9-8.9,16.7-17.1,22.5-4.2,2.9-8.1,5.2-11.8,7-10.5,4.9-21.6,5.9-33.3,3.1-.2,0-.3,0-.5,0-.3.1-.4.3-.3.5-1.4-3.2-3.3-6.1-5.8-8.7-5.7-5.8-12.7-8.9-21-9.4-6.4-8-10.3-17-11.8-26.9,0-.4-.4-.7-.8-.6,0,0,0,0,0,0-7.6,2-15.1,4.9-20.7,10.4-3,2.9-5.7,6.1-8.1,9.6-10.6-11.4-20.8-20-35.7-25.2-1.5-.5-3-.8-4.8-.7-1.6,0-3.2,0-4.9,0,6.7-.3,13.2-1.5,19.6-3.4,19.4-5.9,31.1-22.8,33-42.5.2-2.2.4-4.3.7-6.6h0Z"/>
      <path class="cls-3" d="M816.5-748.4c.3,1.2.8,1.7,1.4,1.7,11.5-1.3,22.1.5,31.7,5.7,6.9,3.7,13.1,8.9,18.6,15.7l-1.7,2.2c-1.7.7-3.4,1.5-5.1,2.2-6.5,2.9-13,3.8-20.1,2.7-10.3-1.6-16.9-9.1-21.5-18.8-2.2-4.6-3.3-8.4-3.3-11.5h0Z"/>
      <path class="cls-8" d="M1019.3-728.9l-18.7,1.2c-.4,0-.7-.3-.7-.7h0c-.3-4.3,0-9,1-14l18.4,13.4h0Z"/>
      <path class="cls-8" d="M925.4-733.4c1.7,0,3.3,0,4.9,0,1.7,0,3.3.2,4.8.7,14.9,5.2,25.2,13.8,35.7,25.2-6.2,10.3-8.7,21.5-9.7,33.3-.6,6.6-1.2,10.8-1.7,12.7-2.6,9.4-6.7,17.4-12.3,24.1-26,30.9-72,27.5-94.6-4.9-.2-.3-.4-.4-.7-.3.1-.7,0-1.3-.3-1.7-3.9-5.8-6.4-12-7.6-18.6-.6-3.5-1.5-6.2-2.5-9.3,9.6-16.5,18.4-32.8,25-50.9l1.7-2.2c.7.2,1.2.2,1.7,0,9.5-6,20-9.2,31.3-9.6,2.4,0,7.6.4,15.7,1.4,1.2.2,4,.2,8.4,0Z"/>
      <path class="cls-8" d="M1039.1-682c4.6,13.9,1.9,25.3-8.2,34.3-10.7,9.6-28.9,9-39.2-1.2-5.6-5.5-8.6-12.2-8.9-20-.8-17.5,12.4-30.2,29.5-31.2,8.3.5,15.3,3.6,21,9.4,2.5,2.6,4.5,5.5,5.8,8.7h0Z"/>
      <path class="cls-1" d="M841.4-672.2c1,3.1,1.9,5.8,2.5,9.3,1.2,6.6,3.7,12.8,7.6,18.6.3.5.4,1.1.3,1.7-18.2,10-36.4,10.2-54.3.5-13.4-7.2-22.2-18.5-26.5-34,7.3-2.3,12.2-4.3,14.8-6,8.3-5.2,13.8-9.1,22.7-10.5,15-2.4,27.2,6.8,33,20.3h0Z"/>
      <path d="M1458.6,706.9c47-26.5,94.1-53.1,141.9-80.1,2.3,4.3,4.6,8,6.4,11.8,25.4,53.5,67.8,82.5,126.5,88.8,31.4,3.4,62.4,3.6,92.7-6.6,24.5-8.2,39.7-24.1,41.5-50.8,1.9-27.5-12.5-45.1-36.4-54-36-13.4-72.6-25.4-109.4-36.4-52.3-15.6-105.4-28.3-151.7-59.8-65.8-44.6-89.6-108.2-83.1-183.8,8.3-96,61.2-159.7,152-190.4,84.3-28.5,168.6-25.1,250.2,10.3,59.3,25.7,100.4,71.2,128.6,132-45.3,27.7-90.6,55.3-136,83.1-11-14.7-20.2-28.6-30.9-41.3-35.7-42.2-114.2-57-163.3-31.7-20,10.3-32.1,25.9-33,48.6-1,22.5,10,39.7,29.7,48.4,26.9,11.8,55.1,21,83,30.4,48.1,16.1,97.8,28.1,144.3,48,110.8,47.4,153.8,155.3,111,268.5-23.8,62.9-69.5,103.8-131.6,124.6-95.3,31.9-191.2,29.5-285.5-5.8-68.2-25.6-114.3-73.9-140.9-141.3-1.3-3.3-4-6.1-6-9.2,0-1.1,0-2.2,0-3.3Z"/>
      <path d="M5781.4,814.5v58.5h-162.6V118.6h162.7v283.3c3.9-2.1,5.5-2.5,6.5-3.5,59.4-63.6,134.5-76.7,215.4-62.1,109.4,19.8,182,85.4,213.3,191.5,32.1,108.9,8.1,208.4-75.5,285-80.7,73.9-178,95.6-283,54.8-23.7-9.2-43.5-28.4-65-43.2-3.4-2.4-6.4-5.3-11.9-9.9ZM5935,477.8c-53.9-.1-94.5,16.6-119.7,45.2-48.8,55.5-42.1,140.7,14.7,186.6,59.4,48,160.5,38.3,203.6-20.3,32.3-43.9,36.9-91.6,13-140.4-24.5-50.1-68.6-68.8-111.7-71.1Z"/>
      <path d="M2275.1,399.1c4.5-2.5,6.3-2.8,7.1-3.9,56.5-73.6,183.4-79.6,260.2-37.7,78.4,42.8,122.1,110,135.6,196.2,15.3,97.5-4.8,186.5-74,260.7-83.7,89.6-237.6,101-321.9,8.4-1.1-1.2-2.5-2.1-5.6-4.7v242.2h-152.5V346c18.4,0,36.1,0,53.8,0,27.9,0,55.9.4,83.8,0,10-.2,14.3,3,13.8,13.3-.6,12.5-.1,25.1-.1,39.8ZM2279.3,610.4c1.1,75.1,54.3,129.8,125.2,128.7,73.2-1.1,125.6-57.1,124.7-133.3-.9-73-55-128.4-124.9-127.7-74.1.8-126.1,55.8-125,132.3Z"/>
      <path d="M5322.9,400.7v-52.5h164.3v524.9h-163.8v-54.4c-26.4,17.2-49.1,37.7-75.8,48.3-101.7,40.3-196.7,21.4-278.7-47.5-150.3-126.4-119.8-372.2,55-458.8,58-28.7,119.6-35.3,182.9-24,45,8,81.8,31.4,116.2,64ZM5321.3,608.6c-.2-73.8-61.6-131-140.9-131.3-79.1-.3-140.3,56.9-140.4,131.2-.1,74.7,59.8,131.9,137.9,131.6,83.3-.3,143.6-55.5,143.3-131.5Z"/>
      <path d="M3427.9,396.6c0-11.3.3-24.4-.1-37.5-.3-8.9,2.1-13.3,12.1-13.2,45.7.3,91.5.2,138.8.2v526.5h-150.3v-55.3c-14.6,12.4-26.5,24-39.8,33.7-77,56.4-185.4,41.9-252.7-8.1-97.5-72.4-127.5-172-110.2-288.5,11.3-75.8,46.3-138.6,111-181.4,71.5-47.3,148.6-56.5,227.6-21,23.1,10.4,42.3,29.4,63.5,44.6ZM3426,607.8c-.3-72.3-54.9-129.9-123.2-130-74.5,0-127.2,53.9-127.1,130.3,0,73.7,54.3,131.3,123.6,131.4,72.4,0,126.9-56.6,126.6-131.6Z"/>
      <path d="M4812.5,716.1v156.7h-506.8V148.6h171.7v567.5h335.1Z"/>
      <path d="M6753,442.4c-44.3,23.8-86.5,46.5-129.6,69.6-27.9-41.1-67-53.9-114-46.2-6,1-13.2,1.9-17.2,5.6-7.2,6.7-16.9,15.4-17.2,23.5-.2,8,8.4,20.8,16,23.6,29.2,10.9,59.6,18.3,89.4,27.5,34,10.5,69.4,18.4,101.6,32.9,120.9,54.3,97.6,201,28.5,254.4-36,27.8-76.6,43.3-121,49.3-78,10.6-153.9,5-224.5-33.7-38.6-21.2-64.8-53.5-83.5-94.3,46-23.2,91.2-45.9,138.1-69.5,2.8,4.7,5.7,9.3,8.3,13.9,25.5,45.3,104.4,68.7,150.2,43,8.2-4.6,16.1-16.8,16.6-25.9.5-8.2-7.5-21.5-15.1-24.7-24-10.2-49.4-16.8-74.4-24.7-37.2-11.7-75.5-20.7-111.5-35.4-116.6-47.4-111.5-184.5-37-244.9,42.3-34.3,90.9-49.1,143.6-53.1,72.4-5.5,141.7,2.9,202.4,47.7,21.4,15.8,37.9,35.7,50.2,61.3Z"/>
      <path d="M4036.8,730.1v143.8c-49.4,8-98.6,10.5-148,2.2-13.7-2.3-27.6-5.3-40.5-10.2-52.7-20.2-78.7-61.3-82.8-115.4-3.3-43.3-2.5-86.9-3-130.4-.4-40.1,0-80.3,0-122.7h-92.9v-150.6h93.1c0-29.4.8-57.1-.3-84.7-.6-15.7,3.2-23.4,20-27.6,37.8-9.5,74.9-22,112.3-33.1,5.7-1.7,11.5-2.9,19.4-4.8v149.4h121.9v151.2h-119.6c-.6,6.4-1.3,10.7-1.3,15-.1,53.6-.5,107.2,0,160.7.3,43.6,17.5,60.6,61.4,60.6,19.5,0,38.9-1.9,60.5-3.1Z"/>
      <path d="M2776.7,109h152.2v763.2h-152.2V109Z"/>
      <path class="cls-7" d="M5935,477.8c43,2.3,87.2,21.1,111.7,71.1,23.8,48.8,19.3,96.5-13,140.4-43.2,58.5-144.2,68.2-203.6,20.3-56.8-45.9-63.5-131.1-14.7-186.6,25.2-28.6,65.7-45.4,119.7-45.2Z"/>
      <path class="cls-7" d="M2279.3,610.4c-1.1-76.5,50.9-131.5,125-132.3,69.8-.7,124,54.7,124.9,127.7.9,76.2-51.5,132.1-124.7,133.3-70.9,1.1-124.1-53.6-125.2-128.7Z"/>
      <path class="cls-7" d="M5321.3,608.6c.2,76-60,131.3-143.3,131.5-78.1.3-138.1-57-137.9-131.6.1-74.3,61.3-131.5,140.4-131.2,79.3.3,140.6,57.5,140.9,131.3Z"/>
      <path class="cls-7" d="M3426,607.8c.3,75-54.2,131.7-126.6,131.6-69.3,0-123.6-57.6-123.6-131.4,0-76.4,52.6-130.4,127.1-130.3,68.3,0,122.9,57.7,123.2,130Z"/>
      <text class="cls-2" transform="translate(1556.7 1308.3)"><tspan x="0" y="0">by ROCK</tspan></text>
      <text/>
      <rect class="cls-4" width="1361.9" height="1361.9" rx="339.8" ry="339.8"/>
      <path class="cls-8" d="M753,308.1c0,.3.4,1.2,1.3,2.9-3.8.4-6.3,1.2-7.8,2.2-14.6,11.2-24.1,25.7-28.6,43.4-3.9,15.4-2.3,30.3,3.8,45.1,2.1,5.2,4.8,11.1,6.1,17.7-17.4,10.4-36.3,13.9-56.7,10.5l-4.8-.2c-.4,0-.8-.1-1.2-.3-.9-.5-1.5-.9-1.9-1.4-2-2.5-6.6-2.7-9.5-4.3-24.7-12.5-41.3-33.8-44.3-61.4-.5-4.2-.3-10.9.5-20.3,0-.6.2-1.2.4-1.8l10-30.1c9-13.5,20.3-23.4,34.1-29.7,29.3-13.4,61.9-8.3,86.3,13.1,3.7,3.2,7.8,8.1,12.5,14.6h0Z"/>
      <ellipse class="cls-8" cx="562.3" cy="319.3" rx="24.4" ry="24.7" transform="translate(-8.7 15.8) rotate(-1.6)"/>
      <path class="cls-3" d="M889.7,363.8c-5.2,0-13.9-.5-26-1.3-9.6-.7-18.9,1.4-27.8,6.2-5.5,3-10.3,5.3-14.3,7.1-14.6,6.4-28.2,5.1-40.6-4-4.6-3.4-8.7-8.9-12.1-16.4-.9-1.9-1.7-5.4-2.5-10.6-1.9-12.6-4.4-23.6-12.2-33.9-.9-1.6-1.4-2.6-1.3-2.9,14.7-7.5,29.6-10.5,44.7-9.2,7.6.7,15.6,2.9,24,6.8,21.8,10,36.7,30.7,41.3,54.1.2.8.9,1.4,1.8,1.4,8.6-.1,16.6.3,24.8,2.6h0Z"/>
      <path class="cls-1" d="M620.1,310.2l-10,30.1c-.2.6-.3,1.2-.4,1.8-.8,9.4-.9,16.1-.5,20.3,3,27.6,19.7,48.9,44.3,61.4,3,1.5,7.6,1.8,9.5,4.3.4.5,1,1,1.9,1.4.4.2.8.3,1.2.3l4.8.2c-24.6.4-53.1,6.2-69.1,26.7-3.5,4.5-6.6,9.6-9.3,15.3-2.3,5-4.1,10.6-5.3,17-2.3,12.3-2.4,24.7-.5,37.4-1.7-5-2.7-9.6-3-13.7-.6-9.7-1.3-17.6-2.2-23.5-3.1-14.2-9.2-27-18.2-38.3-2.8-3.5-7.3-7.5-10.5-11.8l5.2-7.4c6.2-1.3,11.6-3.2,16.4-5.8,16.9-9.3,26.9-27.8,30.5-46.4,2-10.3,2.9-19.6,2.9-27.7,0-3.3.1-5.6.4-6.9.7-3,.5-5.6,1.3-9.2,2-9,5.5-17.4,10.2-25.3h0Z"/>
      <path class="cls-6" d="M754.3,311c7.8,10.4,10.3,21.3,12.2,33.9.8,5.1,1.6,8.6,2.5,10.6,3.4,7.6,7.5,13,12.1,16.4,12.4,9.1,26,10.4,40.6,4,4-1.8,8.7-4.1,14.3-7.1,8.9-4.8,18.2-6.9,27.8-6.2,12.1.8,20.7,1.2,26,1.3,12.1,3.2,22.7,8.6,31.8,16.3,20.2,16.9,30.3,43,27.8,69.2-3.7,39.1-36.2,70.2-75.7,71.8-23,.9-44.2-6.4-60.3-22.7-11.6-11.7-18.9-24.8-22-40.5-.7-3.6-1.4-7.1-2-10.6,0-2.3-.3-4.5-.8-6.5-1.8-8.3-5.9-15.3-12.2-20.9-10.8-9.7-23-11.7-36.6-5.8-4.1,1.8-7,3.3-8.9,4.5-.8-.4-1.8,0-3.2,1-1.3-6.6-4-12.5-6.1-17.7-6.1-14.9-7.6-29.8-3.8-45.1,4.5-17.7,14-32.2,28.6-43.4,1.4-1.1,4-1.8,7.8-2.2h0Z"/>
      <path class="cls-3" d="M558.4,431.6l-5.2,7.4c-7.6-5.7-13.5-9.8-17.8-12.2-14.9-8.4-31.3-12.5-49.2-12.2-17.7.3-33.7,4.8-48.2,13.6-4-14.2-3.7-27.4,1.1-39.8,10.1-26.5,33.6-43.4,62.4-42.2,23.5,1,44.5,15.9,54.2,36.4,6.9,14.7,7.8,31,2.7,49h0Z"/>
      <path class="cls-1" d="M789.5,447.3c-18.8-.3-35.3-6.6-49.4-18.9-3.8-3.3-6.8-6.6-9.1-9.9,1.8-1.2,4.8-2.7,8.9-4.5,13.6-5.8,25.8-3.9,36.6,5.8,6.3,5.6,10.4,12.6,12.2,20.9.5,2,.7,4.2.8,6.5h0Z"/>
      <path class="cls-6" d="M553.1,438.9c3.2,4.3,7.7,8.3,10.5,11.8,9,11.3,15,24.1,18.2,38.3.3,9.9.8,19.7,1.4,29.5.9,14.6,0,26.6-9.6,38.2-9.8,11.7-21,22.4-33.7,32.1-.3.2-.4.7-.3,1,2.8,5.8,6.9,15.4.5,20.4-11.4-3.3-21.9-4.6-31.4-4-14.5,1-25.7,2.3-40.8-.3-8.5-1.4-16.2-4-23.1-7.8-2.8-1.5-6.8-4-12.1-7.6-5.8-4.1-10.2-7.6-13.1-10.7-17.9-18.4-27.4-39.8-28.4-64.2-1-23.2,5.2-44.2,19-63,7.6-10.4,16.9-18.7,27.9-24.8,14.5-8.7,30.5-13.2,48.2-13.6,17.9-.3,34.2,3.7,49.2,12.2,4.2,2.4,10.2,6.5,17.8,12.2h0Z"/>
      <path class="cls-8" d="M587,526.3c6.2,21.5,18.9,37.7,38.3,48.6,6.6,3.7,13.6,6.9,20.8,9.6,2.8,1.9,5.5,3.3,8,4.1,5.6,1.8,11.8,3.7,18.4,5.9,6.6,2.1,11,2,18.3,3.2,7.9,1.2,16.8,9.4,21.1,15,1.8,2.4,4,6.2,6.4,11.5,3.2,7,5,11,5.3,11.9,3.4,9.6,5.6,22.8,4.2,33.3-3.8,28-23.3,49.1-51.6,52.9-15,2-30.9-2.9-42.6-11.8-12.9-9.9-20.2-23.6-22.1-41.1,0-.4-.1-.8-.3-1.2-2.2-5.7-4-9.7-5.5-12.2-6.1-10.5-16.3-14.5-27.6-17.7-.3,0-.6-.3-.7-.5,0-.1-.1-.2-.2-.3,0,0-.1-.1-.2-.2-.2,0-.4,0-.5.3-6.8-11-16.7-19.2-29.7-24.6l-6.8-2.7c6.4-5,2.3-14.6-.5-20.4-.2-.4,0-.8.3-1,12.7-9.7,23.9-20.4,33.7-32.1,9.7-11.6,10.6-23.6,9.6-38.2-.6-9.8-1.1-19.6-1.4-29.5.9,5.9,1.6,13.8,2.2,23.5.3,4.1,1.2,8.7,3,13.7h0Z"/>
      <path class="cls-3" d="M646.2,584.6c9.8,3.3,19.8,5.5,30.2,6.6,8,.9,14,1.6,17.8,2.1,5.2.7,11.8,2.6,20,5.6,6,2.2,12,5.5,18.1,9.9,17.7,12.8,29.3,29.8,34.6,51,.7,2.8,1.5,8.6,2.5,17.4,1.7,14.8,4.9,27.4,9.7,37.8,2.7,6,7.1,12.3,13.1,19,5.3,5.9,12.5,10.8,21.4,14.4-24.1,10.1-47.4,28.4-58.8,52.4-18.9-18-45.6-28.7-70.7-30.7-10.6-.8-18.6-1.9-24-3.2-14-3.3-26.7-9.9-38-19.7-12.2-10.6-20.8-23.8-25.9-39.5-2.4-7.4-3.4-11-4.1-18.7-1-11.6-3.5-23.4-7.4-35.2-1.9-5.8-4.5-11.2-7.8-16.3.2-.2.3-.3.5-.3.1,0,.2,0,.2.2,0,.1.1.2.2.3.2.3.4.5.7.5,11.2,3.1,21.5,7.2,27.6,17.7,1.4,2.5,3.3,6.5,5.5,12.2.1.4.3.8.3,1.2,1.8,17.6,9.2,31.3,22.1,41.1,11.6,8.9,27.5,13.8,42.6,11.8,28.3-3.8,47.8-24.9,51.6-52.9,1.4-10.5-.8-23.7-4.2-33.3-.3-.9-2.1-4.9-5.3-11.9-2.4-5.3-4.5-9.1-6.4-11.5-4.3-5.6-13.3-13.8-21.1-15-7.3-1.2-11.7-1-18.3-3.2-6.6-2.2-12.8-4.1-18.4-5.9-2.6-.8-5.2-2.2-8-4.1h0Z"/>
      <path class="cls-1" d="M540.2,610.3l6.8,2.7c-.5,9.9-2.1,19.3-5,28-.3.8.2,1.7,1,2h0c4.5,1.3,8.7,3.3,12.6,5.9l-17.8-7.1c-.2,0-.3-.1-.5-.1-25.8-2.8-44.2,17.8-42.9,43l-.6-5.9c0-.3-.3-.6-.7-.6h0c-15.5,1.1-28.8-2.2-40-9.8-25.5-17.3-33.9-49.4-20.5-77.8,5.3,3.5,9.3,6.1,12.1,7.6,7,3.8,14.7,6.4,23.1,7.8,15.1,2.5,26.3,1.2,40.8.3,9.5-.6,20,.7,31.4,4h0Z"/>
      <path class="cls-8" d="M555.7,649c10.5,8.1,18.1,21.5,16.4,35-2.1,17.5-11.3,29.1-27.6,34.8-10.1,3.5-21.5,1.7-30.8-3.7-11.1-6.5-17.6-16.6-19.3-30.4-1.3-25.2,17.1-45.7,42.9-43,.2,0,.3,0,.5.1l17.8,7.1h0Z"/>
      <path class="cls-3" d="M929.5,770.5c-1.3-.2-2.1-.4-2.3-.6-13-9.1-26.9-14.2-41.8-15.2-10.1-.7-18.5-.5-25.3.5-15.3,2.3-28.7-1-42.8-4.6-.4,0-.7-.3-1-.5-.7-.5-1.7-1-3-1.4,1-.2,1.5-.4,1.5-.8-.3-9.4,1.2-18.6,4.8-27.6.2-.5,0-1.1-.5-1.3,0,0,0,0-.1,0-7.4-2-13.7-5.9-18.8-11.6-11.2-12.4-13.4-29.2-6.1-44,8.1-16.3,27.6-25.7,45.8-20.3,10.7,3.2,18.5,9.7,23.5,19.5,3.3,6.5,4.3,12.3,4.4,19.9,0,.5.5,1,1,1h0c7-.4,14.2-.3,20.7,1.4,18.1,4.7,31.2,15.3,39.4,31.7,1.3,2.6,2,4.1,2.1,4.3,6.9,16.5,6.4,33-1.5,49.6h0ZM821.7,719.6c19.8,4.7,45.5-12.1,44.2-33.7,0-.4-.3-.7-.7-.7-18.5.4-38,16.8-43.9,33.5-.1.3,0,.7.4.8,0,0,0,0,0,0h0Z"/>
      <path class="cls-8" d="M821.3,718.8c5.9-16.7,25.4-33.1,43.9-33.5.4,0,.7.3.7.7,1.3,21.6-24.4,38.4-44.2,33.7-.3,0-.5-.4-.5-.7,0,0,0,0,0,0Z"/>
      <path class="cls-6" d="M813.5,748.5c.3.1.3.2-.2.3,1.3.4,2.3.8,3,1.4.3.2.6.4,1,.5,14.1,3.6,27.5,6.9,42.8,4.6,6.8-1,15.2-1.2,25.3-.5,14.9,1,28.8,6.1,41.8,15.2.3.2,1.1.4,2.3.6l.4.7c.2.4.6.8,1,1.1,39.8,28.8,51.6,85.6,26.3,128.1-2.9,4.9-7.6,10.6-11.3,16-7,7.9-15.6,14.5-25.6,19.8-24.4,12.8-49.7,15.1-75.9,6.8-4.2-1.3-8.2-2.6-12.2-3.9l-24.4-17.8c-9.5-9.8-17.1-21-22.7-33.7-1.3-3-3.2-8.7-5.5-17.2-.1-.4-.2-.7-.2-1.1-.1-2.1-.5-4-1.2-5.9,0-19.6-3.5-35.6-14.6-51.8-1.6-2.3-4.5-5.8-8.7-10.7,11.5-24.1,34.7-42.3,58.8-52.4h0Z"/>
      <path class="cls-6" d="M562.9,913.2c0,4.1,1.5,9.2,4.4,15.2,6.1,12.9,14.8,22.8,28.5,24.9,9.3,1.4,18,.2,26.6-3.6,2.3-1,4.5-2,6.8-3-8.8,23.9-20.5,45.6-33.3,67.5-7.7-17.9-23.9-30.1-43.8-26.9-11.8,1.9-19.2,7-30.2,13.9-3.4,2.2-10,4.8-19.6,7.9-12.9,3.4-25.3,4-37,1.8-28.8-5.3-53-24.9-64.2-52.1-5.8-14.2-7.5-29.5-5-46,6.9-45.3,49.5-76.6,94.3-70.6,16.8,2.2,31.8,9,44.8,20.2,15.2,13.1,24.4,30,27.7,50.7Z"/>
      <path class="cls-1" d="M778.1,863.4c.7,1.9,1.1,3.8,1.2,5.9,0,.4,0,.7.2,1.1,2.4,8.5,4.2,14.2,5.5,17.2,5.6,12.7,13.2,23.9,22.7,33.7-1.3,6.6-1.7,12.8-1.4,18.5,0,.5.5.9,1,.9h0l24.8-1.6c4,1.3,8.1,2.6,12.2,3.9,26.2,8.3,51.5,6.1,75.9-6.8,10.1-5.3,18.6-11.9,25.6-19.8,2.9,14.4,1.6,28.2-3.8,41.2-5,12-11.8,22.2-22.7,29.8-5.5,3.9-10.8,7-15.7,9.3-13.9,6.5-28.7,7.8-44.3,4.1-.2,0-.4,0-.6,0-.4.2-.6.4-.4.6-1.8-4.3-4.4-8.1-7.7-11.5-7.6-7.7-16.9-11.9-27.9-12.5-8.5-10.6-13.7-22.5-15.6-35.7,0-.5-.6-.9-1.1-.8,0,0,0,0-.1,0-10.1,2.7-20,6.5-27.5,13.8-4,3.9-7.6,8.1-10.7,12.8-14-15.1-27.7-26.6-47.4-33.5-1.9-.7-4-1-6.3-1-2.1,0-4.3,0-6.5,0,8.9-.4,17.6-1.9,26-4.5,25.8-7.9,41.3-30.2,43.8-56.4.3-2.9.6-5.8.9-8.7h0Z"/>
      <path class="cls-3" d="M562.9,913.2c.5,1.6,1.1,2.3,1.9,2.2,15.3-1.8,29.3.7,42.1,7.6,9.1,4.9,17.3,11.8,24.7,20.9l-2.3,2.9c-2.3,1-4.6,2-6.8,3-8.6,3.8-17.3,5.1-26.6,3.6-13.7-2.2-22.4-12-28.5-24.9-2.9-6.1-4.3-11.2-4.4-15.2h0Z"/>
      <path class="cls-8" d="M832.1,939.1l-24.8,1.6c-.5,0-1-.4-1-.9h0c-.4-5.7,0-11.9,1.4-18.5l24.4,17.8h0Z"/>
      <path class="cls-8" d="M707.4,933c2.2,0,4.4,0,6.5,0,2.3,0,4.4.3,6.3,1,19.8,6.9,33.4,18.3,47.4,33.5-8.2,13.7-11.5,28.5-12.9,44.3-.8,8.7-1.5,14.3-2.2,16.8-3.4,12.5-8.9,23.1-16.3,32-34.4,41-95.5,36.5-125.6-6.5-.3-.4-.6-.5-.9-.4.2-.9,0-1.7-.4-2.3-5.2-7.8-8.5-16-10.1-24.7-.8-4.6-2-8.3-3.3-12.3,12.7-21.9,24.5-43.6,33.3-67.5l2.3-2.9c.9.3,1.6.3,2.3,0,12.6-8,26.5-12.3,41.5-12.8,3.1,0,10.1.5,20.9,1.9,1.6.2,5.3.3,11.2.1Z"/>
      <path class="cls-8" d="M858.4,1001.4c6.1,18.4,2.5,33.6-10.9,45.6-14.2,12.8-38.3,12-52.1-1.6-7.4-7.3-11.4-16.2-11.8-26.5-1-23.2,16.4-40.1,39.1-41.4,11,.6,20.3,4.8,27.9,12.5,3.3,3.4,5.9,7.2,7.7,11.5h0Z"/>
      <path class="cls-1" d="M596,1014.3c1.3,4.1,2.5,7.7,3.3,12.3,1.6,8.7,4.9,17,10.1,24.7.4.6.5,1.4.4,2.3-24.2,13.3-48.3,13.6-72.1.7-17.7-9.6-29.5-24.6-35.2-45.1,9.7-3.1,16.2-5.7,19.6-7.9,11-6.9,18.4-12,30.2-13.9,19.9-3.2,36.1,9,43.8,26.9h0Z"/>
    </g>
  </g>
</svg>