<?xml version="1.0" encoding="UTF-8"?>
<svg id="Layer_1" data-name="Layer 1" xmlns="http://www.w3.org/2000/svg" xmlns:xlink="http://www.w3.org/1999/xlink" viewBox="0 0 1026 1026">
  <defs>
    <linearGradient id="linear-gradient" x1="12.99" y1="1013.01" x2="13.99" y2="1012.01" gradientTransform="translate(-13325 1039351) scale(1026 -1026)" gradientUnits="userSpaceOnUse">
      <stop offset="0" stop-color="#fb923c"/>
      <stop offset="1" stop-color="#ea580c"/>
    </linearGradient>
  </defs>
  <rect width="1026" height="1026" rx="256" ry="256" fill="url(#linear-gradient)"/>
  <path d="M567.3,232.11c-.05.21.28.93.98,2.16-2.83.31-4.78.87-5.85,1.69-11,8.45-18.18,19.35-21.55,32.7-2.91,11.57-1.72,22.79,2.84,34.01,1.58,3.9,3.6,8.37,4.56,13.33-13.11,7.81-27.35,10.45-42.72,7.9l-3.65-.12c-.32,0-.62-.09-.9-.23-.66-.34-1.14-.7-1.43-1.07-1.49-1.88-4.94-2.06-7.19-3.21-18.58-9.45-31.11-25.47-33.4-46.27-.35-3.13-.23-8.23.36-15.28.04-.45.13-.9.28-1.34l7.54-22.7c6.75-10.18,15.32-17.64,25.69-22.39,22.06-10.09,46.66-6.23,65.01,9.85,2.75,2.41,5.9,6.07,9.43,10.97h0Z" fill="#fbf0df"/>
  <ellipse cx="423.62" cy="240.53" rx="18.37" ry="18.6" transform="translate(-6.55 11.92) rotate(-1.6)" fill="#fbf0df"/>
  <path d="M670.27,274.1c-3.94-.03-10.46-.34-19.55-.95-7.25-.49-14.23,1.07-20.94,4.68-4.17,2.23-7.75,4.01-10.76,5.33-11.01,4.85-21.21,3.84-30.58-3.01-3.49-2.55-6.53-6.68-9.12-12.38-.65-1.44-1.27-4.09-1.86-7.95-1.43-9.52-3.29-17.75-9.18-25.55-.7-1.23-1.03-1.95-.98-2.16,11.08-5.63,22.31-7.94,33.7-6.95,5.7.49,11.73,2.2,18.09,5.13,16.4,7.54,27.67,23.09,31.14,40.74.13.64.69,1.09,1.34,1.08,6.46-.09,12.5.23,18.7,1.99h0Z" fill="#fee8d9"/>
  <path d="M467.17,233.68l-7.54,22.7c-.15.44-.24.89-.28,1.34-.59,7.05-.71,12.15-.36,15.28,2.29,20.8,14.82,36.82,33.4,46.27,2.25,1.15,5.7,1.33,7.19,3.21.29.37.77.73,1.43,1.07.28.14.58.22.9.23l3.65.12c-18.55.31-39.97,4.66-52.03,20.13-2.64,3.39-4.97,7.23-6.99,11.51-1.76,3.73-3.08,7.99-3.97,12.8-1.71,9.25-1.83,18.63-.34,28.14-1.29-3.77-2.03-7.2-2.23-10.31-.46-7.34-1.01-13.25-1.66-17.72-2.37-10.71-6.94-20.34-13.7-28.88-2.1-2.66-5.49-5.68-7.93-8.91l3.95-5.55c4.65-.96,8.76-2.42,12.32-4.37,12.74-7.01,20.29-20.98,22.99-34.99,1.5-7.79,2.22-14.74,2.17-20.87-.03-2.5.08-4.24.32-5.22.55-2.27.39-4.2,1-6.92,1.54-6.77,4.11-13.12,7.71-19.06h0Z" fill="#fed3ba"/>
  <path d="M568.28,234.27c5.89,7.8,7.75,16.03,9.18,25.55.59,3.86,1.21,6.51,1.86,7.95,2.59,5.7,5.63,9.83,9.12,12.38,9.37,6.85,19.57,7.86,30.58,3.01,3.01-1.32,6.59-3.1,10.76-5.33,6.71-3.61,13.69-5.17,20.94-4.68,9.09.61,15.61.92,19.55.95,9.13,2.41,17.12,6.5,23.99,12.25,15.2,12.74,22.85,32.42,20.98,52.11-2.81,29.45-27.3,52.85-57.01,54.08-17.33.71-33.29-4.84-45.4-17.11-8.71-8.84-14.27-18.68-16.56-30.49-.52-2.7-1.02-5.36-1.51-7.98-.05-1.73-.24-3.36-.58-4.9-1.39-6.26-4.46-11.52-9.2-15.77-8.15-7.32-17.35-8.79-27.6-4.4-3.07,1.32-5.31,2.45-6.7,3.38-.59-.29-1.39-.05-2.4.73-.96-4.96-2.98-9.43-4.56-13.33-4.56-11.22-5.75-22.44-2.84-34.01,3.37-13.35,10.55-24.25,21.55-32.7,1.07-.82,3.02-1.38,5.85-1.69h0Z" fill="#fefcf8"/>
  <path d="M420.66,325.11l-3.95,5.55c-5.73-4.33-10.2-7.4-13.4-9.2-11.25-6.35-23.6-9.4-37.05-9.17-13.31.23-25.41,3.64-36.3,10.21-3.02-10.66-2.75-20.65.8-29.97,7.59-19.96,25.29-32.67,47-31.78,17.72.72,33.55,11.98,40.84,27.41,5.23,11.06,5.91,23.38,2.06,36.95h0Z" fill="#fee8d9"/>
  <path d="M594.76,336.96c-14.15-.19-26.56-4.95-37.21-14.26-2.86-2.51-5.15-4.98-6.87-7.43,1.39-.93,3.63-2.06,6.7-3.38,10.25-4.39,19.45-2.92,27.6,4.4,4.74,4.25,7.81,9.51,9.2,15.77.34,1.54.53,3.17.58,4.9h0Z" fill="#fed3ba"/>
  <path d="M416.71,330.66c2.44,3.23,5.83,6.25,7.93,8.91,6.76,8.54,11.33,18.17,13.7,28.88.24,7.45.59,14.86,1.06,22.24.7,11.01.05,20.04-7.25,28.77-7.37,8.8-15.83,16.86-25.39,24.19-.24.18-.32.5-.19.78,2.08,4.36,5.21,11.58.36,15.37-8.61-2.47-16.5-3.47-23.68-3-10.92.72-19.39,1.7-30.77-.22-6.38-1.07-12.19-3.03-17.43-5.88-2.09-1.13-5.13-3.03-9.12-5.7-4.37-3.07-7.66-5.75-9.88-8.03-13.47-13.83-20.61-29.95-21.42-48.35-.78-17.5,3.91-33.28,14.3-47.44,5.75-7.83,12.76-14.06,21.03-18.68,10.89-6.57,22.99-9.98,36.3-10.21,13.45-.23,25.8,2.82,37.05,9.17,3.2,1.8,7.67,4.87,13.4,9.2h0Z" fill="#fefcf8"/>
  <path d="M442.23,396.48c4.64,16.21,14.27,28.42,28.89,36.65,5,2.81,10.23,5.23,15.69,7.26,2.09,1.46,4.11,2.49,6.04,3.1,4.25,1.34,8.88,2.82,13.88,4.44,4.94,1.6,8.27,1.51,13.76,2.38,5.94.94,12.66,7.05,15.93,11.3,1.39,1.81,2.99,4.7,4.8,8.67,2.41,5.29,3.74,8.29,3.99,8.99,2.59,7.22,4.25,17.18,3.16,25.08-2.89,21.09-17.54,36.99-38.87,39.84-11.33,1.51-23.3-2.2-32.06-8.92-9.69-7.43-15.23-17.75-16.62-30.98-.03-.31-.11-.61-.22-.9-1.67-4.27-3.04-7.33-4.12-9.18-4.61-7.91-12.31-10.95-20.78-13.32-.23-.06-.42-.21-.54-.41-.05-.08-.09-.17-.14-.26-.03-.06-.09-.11-.17-.13-.15-.03-.28.04-.41.22-5.16-8.3-12.61-14.47-22.36-18.51l-5.15-2c4.85-3.79,1.72-11.01-.36-15.37-.13-.28-.05-.6.19-.78,9.56-7.33,18.02-15.39,25.39-24.19,7.3-8.73,7.95-17.76,7.25-28.77-.47-7.38-.82-14.79-1.06-22.24.65,4.47,1.2,10.38,1.66,17.72.2,3.11.94,6.54,2.23,10.31h0Z" fill="#fbf0df"/>
  <path d="M486.81,440.39c7.36,2.49,14.95,4.15,22.76,4.99,6.03.65,10.51,1.18,13.43,1.59,3.91.56,8.92,1.97,15.03,4.22,4.51,1.67,9.05,4.15,13.63,7.46,13.36,9.64,22.04,22.46,26.05,38.45.53,2.11,1.16,6.49,1.9,13.12,1.25,11.15,3.67,20.64,7.27,28.48,2.07,4.52,5.36,9.29,9.86,14.31,4.03,4.48,9.4,8.1,16.11,10.85-18.18,7.62-35.68,21.36-44.31,39.5-14.27-13.55-34.38-21.64-53.28-23.11-7.99-.63-14.03-1.42-18.11-2.38-10.58-2.5-20.13-7.46-28.65-14.87-9.18-8-15.68-17.92-19.5-29.75-1.78-5.54-2.56-8.29-3.07-14.11-.77-8.77-2.63-17.62-5.58-26.55-1.44-4.37-3.41-8.46-5.91-12.28.13-.18.26-.25.41-.22.08.02.14.07.17.13.05.09.09.18.14.26.12.2.31.35.54.41,8.47,2.37,16.17,5.41,20.78,13.32,1.08,1.85,2.45,4.91,4.12,9.18.11.29.19.59.22.9,1.39,13.23,6.93,23.55,16.62,30.98,8.76,6.72,20.73,10.43,32.06,8.92,21.33-2.85,35.98-18.75,38.87-39.84,1.09-7.9-.57-17.86-3.16-25.08-.25-.7-1.58-3.7-3.99-8.99-1.81-3.97-3.41-6.86-4.8-8.67-3.27-4.25-9.99-10.36-15.93-11.3-5.49-.87-8.82-.78-13.76-2.38-5-1.62-9.63-3.1-13.88-4.44-1.93-.61-3.95-1.64-6.04-3.1h0Z" fill="#fee8d9"/>
  <path d="M406.93,459.8l5.15,2c-.34,7.48-1.59,14.52-3.74,21.11-.2.63.14,1.31.77,1.51h.03c3.39,1.01,6.55,2.51,9.48,4.48l-13.42-5.34c-.13-.05-.26-.08-.39-.1-19.45-2.08-33.33,13.41-32.35,32.36l-.47-4.45c-.02-.25-.25-.44-.51-.42h0c-11.65.81-21.69-1.64-30.14-7.36-19.22-13.01-25.57-37.2-15.41-58.6,3.99,2.67,7.03,4.57,9.12,5.7,5.24,2.85,11.05,4.81,17.43,5.88,11.38,1.92,19.85.94,30.77.22,7.18-.47,15.07.53,23.68,3h0Z" fill="#fed3ba"/>
  <path d="M418.62,488.91c7.91,6.08,13.61,16.23,12.38,26.35-1.59,13.19-8.52,21.93-20.78,26.22-7.62,2.67-16.19,1.29-23.19-2.78-8.39-4.87-13.24-12.49-14.57-22.87-.98-18.95,12.9-34.44,32.35-32.36.13.02.26.05.39.1l13.42,5.34h0Z" fill="#fbf0df"/>
  <path d="M700.26,580.48c-.96-.14-1.55-.28-1.76-.43-9.77-6.85-20.27-10.66-31.5-11.45-7.59-.53-13.95-.41-19.06.36-11.54,1.75-21.6-.77-32.22-3.46-.28-.07-.54-.19-.76-.37-.51-.39-1.26-.74-2.25-1.03.76-.12,1.13-.32,1.12-.6-.26-7.07.94-13.99,3.6-20.76.15-.38-.04-.81-.41-.95-.03,0-.05-.02-.08-.03-5.59-1.52-10.31-4.43-14.18-8.74-8.41-9.35-10.11-21.96-4.57-33.18,6.07-12.3,20.8-19.39,34.48-15.29,8.04,2.41,13.94,7.31,17.7,14.71,2.49,4.91,3.23,9.28,3.35,14.98.01.41.35.73.75.72h.03c5.28-.31,10.73-.24,15.59,1.03,13.62,3.57,23.51,11.53,29.66,23.89.99,1.97,1.52,3.06,1.61,3.27,5.17,12.44,4.81,24.88-1.1,37.33h0ZM619.05,542.08c14.93,3.52,34.29-9.14,33.3-25.38-.02-.28-.26-.5-.54-.49-13.96.31-28.61,12.66-33.09,25.27-.08.24.04.5.28.59.02,0,.03.01.05.01h0Z" fill="#fee8d9"/>
  <path d="M618.72,541.48c4.48-12.61,19.13-24.96,33.09-25.27.28-.01.52.21.54.49.99,16.24-18.37,28.9-33.3,25.38-.25-.06-.4-.3-.34-.55,0-.02,0-.03.01-.05Z" fill="#fbf0df"/>
  <path d="M612.85,563.86c.25.09.21.17-.14.24.99.29,1.74.64,2.25,1.03.22.18.48.3.76.37,10.62,2.69,20.68,5.21,32.22,3.46,5.11-.77,11.47-.89,19.06-.36,11.23.79,21.73,4.6,31.5,11.45.21.15.8.29,1.76.43l.28.49c.18.31.43.58.73.8,29.96,21.73,38.85,64.46,19.85,96.48-2.21,3.72-5.72,8-8.54,12.09-5.29,5.94-11.73,10.91-19.32,14.91-18.36,9.67-37.42,11.38-57.18,5.11-3.13-1-6.2-1.98-9.21-2.93l-18.4-13.41c-7.16-7.37-12.86-15.84-17.1-25.39-1-2.25-2.39-6.57-4.18-12.96-.08-.27-.13-.54-.14-.81-.09-1.55-.39-3.03-.91-4.44.05-14.79-2.63-26.84-11.01-39.03-1.19-1.72-3.38-4.4-6.59-8.03,8.63-18.14,26.13-31.88,44.31-39.5h0Z" fill="#fefcf8"/>
  <path d="M424.06,687.95c.02,3.07,1.11,6.9,3.28,11.48,4.6,9.7,11.16,17.14,21.47,18.76,7.02,1.09,13.57.15,20.06-2.74,1.71-.76,3.42-1.51,5.15-2.24-6.61,18.03-15.45,34.37-25.05,50.88-5.78-13.52-17.98-22.7-32.99-20.29-8.89,1.43-14.46,5.27-22.73,10.5-2.59,1.64-7.52,3.63-14.79,5.96-9.73,2.55-19.03,3.01-27.88,1.38-21.71-3.99-39.94-18.74-48.39-39.24-4.39-10.66-5.65-22.21-3.76-34.65,5.19-34.14,37.26-57.69,71.04-53.2,12.67,1.68,23.92,6.76,33.75,15.24,11.43,9.85,18.37,22.57,20.84,38.16Z" fill="#fefcf8"/>
  <path d="M586.14,650.42c.52,1.41.82,2.89.91,4.44.01.27.06.54.14.81,1.79,6.39,3.18,10.71,4.18,12.96,4.24,9.55,9.94,18.02,17.1,25.39-.95,5-1.29,9.65-1.02,13.95.02.39.35.68.74.66h0l18.68-1.2c3.01.95,6.08,1.93,9.21,2.93,19.76,6.27,38.82,4.56,57.18-5.11,7.59-4,14.03-8.97,19.32-14.91,2.17,10.87,1.22,21.21-2.86,31.03-3.77,9.04-8.91,16.74-17.12,22.47-4.17,2.92-8.11,5.24-11.8,6.97-10.47,4.89-21.59,5.91-33.34,3.07-.16-.04-.32-.03-.47.02-.33.12-.44.27-.33.46-1.37-3.23-3.32-6.12-5.83-8.68-5.71-5.81-12.72-8.94-21.03-9.39-6.41-8.01-10.33-16.98-11.75-26.9-.06-.41-.43-.7-.84-.64-.03,0-.06.01-.09.02-7.63,2.03-15.06,4.93-20.71,10.39-3.01,2.92-5.7,6.13-8.07,9.64-10.58-11.4-20.84-20.04-35.73-25.21-1.46-.51-3.05-.75-4.78-.72-1.61.03-3.24.04-4.9.03,6.71-.32,13.24-1.45,19.59-3.39,19.4-5.93,31.08-22.76,32.97-42.51.21-2.15.42-4.35.65-6.58h0Z" fill="#fed3ba"/>
  <path d="M424.06,687.95c.34,1.18.81,1.74,1.4,1.67,11.5-1.35,22.07.55,31.7,5.7,6.87,3.68,13.07,8.92,18.6,15.73l-1.74,2.16c-1.73.73-3.44,1.48-5.15,2.24-6.49,2.89-13.04,3.83-20.06,2.74-10.31-1.62-16.87-9.06-21.47-18.76-2.17-4.58-3.26-8.41-3.28-11.48h0Z" fill="#fee8d9"/>
  <path d="M626.87,707.43l-18.68,1.2c-.39.02-.72-.27-.74-.66h0c-.27-4.3.07-8.95,1.02-13.95l18.4,13.41h0Z" fill="#fbf0df"/>
  <path d="M532.93,702.9c1.66,0,3.29,0,4.9-.03,1.73-.03,3.32.21,4.78.72,14.89,5.17,25.15,13.81,35.73,25.21-6.17,10.35-8.67,21.49-9.74,33.35-.59,6.57-1.15,10.8-1.67,12.69-2.59,9.38-6.7,17.41-12.31,24.08-25.95,30.89-71.98,27.47-94.64-4.9-.21-.29-.43-.38-.67-.29.14-.68.05-1.26-.27-1.74-3.89-5.84-6.42-12.04-7.6-18.61-.62-3.47-1.49-6.22-2.47-9.29,9.6-16.51,18.44-32.85,25.05-50.88l1.74-2.16c.66.25,1.23.23,1.7-.07,9.52-6.03,19.95-9.24,31.3-9.62,2.35-.07,7.59.41,15.74,1.44,1.21.16,4.02.19,8.43.1Z" fill="#fbf0df"/>
  <path d="M646.66,754.36c4.61,13.86,1.89,25.31-8.18,34.34-10.72,9.61-28.89,9.04-39.25-1.19-5.6-5.53-8.57-12.2-8.91-20-.76-17.48,12.39-30.2,29.48-31.22,8.31.45,15.32,3.58,21.03,9.39,2.51,2.56,4.46,5.45,5.83,8.68h0Z" fill="#fbf0df"/>
  <path d="M448.97,764.09c.98,3.07,1.85,5.82,2.47,9.29,1.18,6.57,3.71,12.77,7.6,18.61.32.48.41,1.06.27,1.74-18.24,10.05-36.35,10.23-54.34.54-13.36-7.21-22.2-18.54-26.51-34.01,7.27-2.33,12.2-4.32,14.79-5.96,8.27-5.23,13.84-9.07,22.73-10.5,15.01-2.41,27.21,6.77,32.99,20.29h0Z" fill="#fed3ba"/>
</svg>