<?xml version="1.0" encoding="UTF-8"?>
<svg id="Layer_1" data-name="Layer 1" xmlns="http://www.w3.org/2000/svg" xmlns:xlink="http://www.w3.org/1999/xlink" viewBox="0 0 8336.3 1659.92">
  <defs>
    <linearGradient id="linear-gradient" x1="3307.2" y1="2616.13" x2="3308.53" y2="2614.8" gradientTransform="translate(-3393189.97 2684149.38) scale(1026 -1026)" gradientUnits="userSpaceOnUse">
      <stop offset="0" stop-color="#fb923c"/>
      <stop offset="1" stop-color="#ea580c"/>
    </linearGradient>
  </defs>
  <path d="M1752.62,863.81c58.32-32.91,116.64-65.83,176-99.31,2.9,5.32,5.7,9.87,7.97,14.68,31.47,66.36,84.05,102.3,156.91,110.16,38.95,4.2,77.38,4.4,115.01-8.15,30.41-10.16,49.2-29.9,51.53-63.05,2.39-34.05-15.46-55.94-45.12-66.97-44.64-16.59-90.01-31.45-135.66-45.09-64.88-19.4-130.67-35.11-188.17-74.12-81.59-55.36-111.16-134.18-103.08-227.88,10.28-119.09,75.87-198.05,188.47-236.15,104.53-35.38,209.1-31.14,310.29,12.74,73.55,31.88,124.47,88.3,159.44,163.67-56.18,34.3-112.38,68.63-168.72,103.03-13.59-18.27-25.05-35.47-38.32-51.17-44.21-52.32-141.58-70.72-202.47-39.26-24.76,12.8-39.75,32.06-40.95,60.31-1.19,27.95,12.45,49.26,36.84,59.97,33.41,14.66,68.33,26.02,102.99,37.65,59.6,20.02,121.33,34.87,178.91,59.5,137.4,58.79,190.72,192.56,137.64,332.94-29.5,78.04-86.24,128.7-163.24,154.51-118.18,39.61-237.1,36.61-354.06-7.22-84.6-31.7-141.72-91.71-174.78-175.25-1.62-4.12-4.91-7.59-7.43-11.36v-4.18Z"/>
  <path d="M7113.4,997.16v72.51h-201.69V134.26h201.75v351.32c4.8-2.54,6.88-3.06,8.11-4.39,73.68-78.9,166.79-95.14,267.13-76.96,135.69,24.59,225.71,105.87,264.56,237.48,39.86,135.01,10.05,258.39-93.65,353.37-100.03,91.62-220.69,118.57-350.93,67.92-29.38-11.42-53.93-35.28-80.61-53.56-4.25-2.91-7.96-6.62-14.7-12.3h.01ZM7303.9,579.61c-66.88-.16-117.17,20.61-148.4,56.08-60.58,68.8-52.26,174.5,18.19,231.39,73.65,59.49,198.99,47.46,252.52-25.15,40.09-54.39,45.72-113.57,16.15-174.11-30.32-62.08-85.11-85.34-138.46-88.21h0Z"/>
  <path d="M2765.22,482.05c5.62-3.04,7.78-3.52,8.8-4.86,70.13-91.31,227.39-98.71,322.68-46.76,97.26,53.01,151.36,136.37,168.15,243.36,18.97,120.91-5.92,231.33-91.77,323.27-103.82,111.16-294.63,125.19-399.22,10.39-1.35-1.49-3.11-2.62-6.98-5.83v300.29h-189.17V416.21c22.77,0,44.72-.02,66.67,0,34.62.04,69.26.51,103.88-.04,12.38-.2,17.72,3.75,17.13,16.54-.71,15.54-.17,31.14-.17,49.32h0ZM2770.48,744.07c1.34,93.08,67.36,160.94,155.29,159.59,90.8-1.39,155.72-70.77,154.6-165.26-1.07-90.58-68.23-159.29-154.83-158.41-91.94.93-156.43,69.16-155.06,164.07h0Z"/>
  <path d="M6544.81,484.02v-65.16h203.75v650.91h-203.15v-67.47c-32.71,21.27-60.93,46.76-94.06,59.91-126.07,50.01-243.97,26.5-345.63-58.95-186.43-156.7-148.58-461.58,68.22-568.91,71.89-35.59,148.25-43.74,226.79-29.71,55.79,9.96,101.47,38.89,144.09,79.4h0ZM6542.83,741.86c-.27-91.5-76.38-162.44-174.67-162.83-98.12-.38-174,70.5-174.15,162.69-.15,92.6,74.22,163.57,171.06,163.25,103.36-.33,178.04-68.86,177.77-163.11h-.01Z"/>
  <path d="M4194.83,478.93c0-13.98.42-30.26-.15-46.5-.38-11.01,2.65-16.46,15.01-16.36,56.72.43,113.45.19,172.13.19v652.92h-186.34v-68.54c-18.06,15.4-32.86,29.75-49.34,41.82-95.46,69.88-229.88,51.99-313.36-10.02-120.91-89.8-158.14-213.31-136.65-357.77,13.99-93.99,57.39-171.89,137.65-224.94,88.69-58.62,184.28-70.12,282.31-26.07,28.66,12.88,52.51,36.47,78.73,55.27h.01ZM4192.44,740.9c-.32-89.67-68.03-161.14-152.76-161.21-92.43-.07-157.69,66.84-157.61,161.57.09,91.43,67.33,162.88,153.33,162.9,89.81.02,157.38-70.22,157.05-163.25h-.01Z"/>
  <path d="M5911.92,875.19v194.37h-628.48V171.42h212.88v703.78h415.6Z"/>
  <path d="M8318.32,535.72c-54.92,29.5-107.29,57.64-160.73,86.34-34.6-51.01-83.1-66.88-141.42-57.34-7.42,1.22-16.38,2.33-21.38,6.98-8.93,8.31-21,19.11-21.28,29.17-.27,9.9,10.36,25.76,19.83,29.28,36.17,13.47,73.9,22.69,110.87,34.09,42.23,13.02,86,22.77,126.06,40.74,149.89,67.29,121.06,249.24,35.32,315.45-44.62,34.46-95.02,53.65-150.09,61.11-96.75,13.11-190.84,6.16-278.45-41.8-47.92-26.23-80.31-66.41-103.49-116.91,57.08-28.71,113.16-56.92,171.27-86.15,3.53,5.87,7.09,11.47,10.34,17.25,31.68,56.21,129.46,85.23,186.26,53.35,10.17-5.7,19.98-20.83,20.61-32.13.57-10.18-9.28-26.64-18.66-30.64-29.7-12.65-61.31-20.87-92.24-30.61-46.14-14.52-93.64-25.71-138.3-43.89-144.58-58.83-138.24-228.8-45.87-303.67,52.41-42.47,112.69-60.9,178.12-65.89,89.76-6.85,175.77,3.66,250.97,59.2,26.6,19.64,46.98,44.25,62.3,76.06h-.04Z"/>
  <path d="M4949.93,892.48v178.32c-61.31,9.97-122.3,13.07-183.51,2.69-16.98-2.88-34.19-6.52-50.19-12.66-65.34-25.07-97.58-75.96-102.71-143.17-4.09-53.7-3.15-107.82-3.72-161.75-.53-49.78-.11-99.56-.11-152.22h-115.23v-186.77h115.45c0-36.42,1.02-70.76-.4-105-.81-19.42,3.96-29.04,24.75-34.28,46.91-11.81,92.91-27.25,139.33-41.08,7.04-2.1,14.29-3.55,24.06-5.93v185.24h151.21v187.44h-148.37c-.72,7.91-1.62,13.24-1.64,18.59-.15,66.45-.61,132.89-.09,199.32.42,54.11,21.76,75.1,76.17,75.09,24.12,0,48.25-2.37,75.01-3.81h-.02Z"/>
  <path d="M3387.24,122.26h188.68v946.4h-188.68V122.26Z"/>
  <g isolation="isolate">
    <g isolation="isolate">
      <path d="M1907.3,1518.53c0,24.22-5.57,43.68-16.7,58.37-11.13,14.7-26.07,22.05-44.82,22.05-20.02,0-35.5-7.08-46.44-21.24l-1.32,18.31h-24.9v-225h27.1v83.94c10.94-13.57,26.02-20.36,45.26-20.36s34.35,7.28,45.34,21.83c10.99,14.55,16.48,34.47,16.48,59.77v2.34ZM1880.21,1515.45c0-18.46-3.57-32.71-10.69-42.77-7.13-10.06-17.38-15.09-30.76-15.09-17.87,0-30.71,8.3-38.53,24.9v68.55c8.3,16.6,21.24,24.9,38.82,24.9,12.99,0,23.09-5.03,30.32-15.09,7.23-10.06,10.84-25.2,10.84-45.41Z" fill="#424242"/>
      <path d="M1993.29,1556.32l36.91-118.8h29l-63.72,182.96c-9.86,26.37-25.54,39.55-47.02,39.55l-5.13-.44-10.11-1.9v-21.97l7.32.59c9.18,0,16.33-1.86,21.46-5.57,5.13-3.71,9.35-10.5,12.67-20.36l6.01-16.11-56.54-156.74h29.59l39.55,118.8Z" fill="#424242"/>
      <path d="M2240.12,1509.74h-50.1v86.28h-28.27v-213.28h70.61c24.02,0,42.5,5.47,55.44,16.41,12.94,10.94,19.41,26.86,19.41,47.75,0,13.28-3.59,24.85-10.77,34.72-7.18,9.87-17.16,17.24-29.96,22.12l50.1,90.53v1.76h-30.18l-46.29-86.28ZM2190.02,1486.74h43.21c13.96,0,25.07-3.62,33.33-10.86,8.25-7.24,12.38-16.93,12.38-29.06,0-13.21-3.93-23.33-11.79-30.38-7.86-7.04-19.21-10.62-34.06-10.71h-43.07v81.01Z" fill="#424242"/>
      <path d="M2510.67,1496.26c0,20.9-3.52,39.14-10.55,54.71-7.03,15.58-16.99,27.47-29.88,35.67s-27.93,12.3-45.12,12.3-31.69-4.12-44.68-12.38c-12.99-8.25-23.07-20.02-30.25-35.3-7.18-15.28-10.87-32.98-11.06-53.1v-15.38c0-20.51,3.56-38.62,10.69-54.35,7.13-15.72,17.21-27.76,30.25-36.11s27.95-12.52,44.75-12.52,32.15,4.13,45.19,12.38c13.04,8.25,23.07,20.21,30.1,35.89s10.55,33.91,10.55,54.71v13.48ZM2482.7,1482.49c0-25.29-5.08-44.7-15.23-58.23-10.16-13.52-24.37-20.29-42.63-20.29s-31.76,6.76-41.97,20.29c-10.21,13.53-15.45,32.3-15.75,56.32v15.67c0,24.51,5.15,43.78,15.45,57.79,10.3,14.01,24.49,21.02,42.55,21.02s32.23-6.61,42.19-19.85c9.96-13.23,15.09-32.2,15.38-56.91v-15.82Z" fill="#424242"/>
      <path d="M2709.75,1528.34c-2.64,22.56-10.96,39.97-24.98,52.22-14.01,12.26-32.64,18.38-55.88,18.38-25.2,0-45.39-9.03-60.57-27.1-15.19-18.07-22.78-42.24-22.78-72.51v-20.51c0-19.82,3.54-37.25,10.62-52.29,7.08-15.04,17.11-26.59,30.1-34.64,12.99-8.06,28.03-12.08,45.12-12.08,22.65,0,40.82,6.32,54.49,18.97,13.67,12.65,21.63,30.15,23.88,52.51h-28.27c-2.44-17.04-7.74-29.39-15.89-37.03-8.16-7.64-19.56-11.46-34.2-11.46-17.97,0-32.06,6.65-42.26,19.94-10.21,13.29-15.31,32.2-15.31,56.74v20.67c0,23.17,4.83,41.59,14.5,55.27s23.19,20.52,40.58,20.52c15.62,0,27.61-3.54,35.96-10.62,8.35-7.08,13.89-19.41,16.63-36.99h28.27Z" fill="#424242"/>
      <path d="M2802.32,1496.85l-26.07,27.1v72.07h-28.12v-213.28h28.12v105.47l94.78-105.47h33.98l-83.94,94.19,90.53,119.09h-33.69l-75.59-99.17Z" fill="#424242"/>
    </g>
  </g>
  <rect width="1361.93" height="1361.93" rx="339.82" ry="339.82" fill="url(#linear-gradient)"/>
  <path d="M753.04,308.11c-.07.28.37,1.23,1.3,2.87-3.76.41-6.35,1.15-7.77,2.24-14.6,11.22-24.13,25.69-28.61,43.41-3.86,15.36-2.28,30.25,3.77,45.15,2.1,5.18,4.78,11.11,6.05,17.69-17.4,10.37-36.3,13.87-56.71,10.49l-4.85-.16c-.42,0-.82-.12-1.19-.31-.88-.45-1.51-.93-1.9-1.42-1.98-2.5-6.56-2.73-9.54-4.26-24.66-12.54-41.3-33.81-44.34-61.42-.46-4.15-.31-10.92.48-20.28.05-.6.17-1.19.37-1.78l10.01-30.13c8.96-13.51,20.34-23.42,34.1-29.72,29.28-13.39,61.94-8.27,86.3,13.08,3.65,3.2,7.83,8.06,12.52,14.56h.01Z" fill="#fbf0df"/>
  <ellipse cx="562.32" cy="319.28" rx="24.38" ry="24.69" transform="translate(-8.7 15.83) rotate(-1.6)" fill="#fbf0df"/>
  <path d="M889.73,363.85c-5.23-.04-13.88-.45-25.95-1.26-9.62-.65-18.89,1.42-27.8,6.21-5.54,2.96-10.29,5.32-14.28,7.08-14.61,6.44-28.15,5.1-40.59-4-4.63-3.38-8.67-8.87-12.11-16.43-.86-1.91-1.69-5.43-2.47-10.55-1.9-12.64-4.37-23.56-12.19-33.92-.93-1.63-1.37-2.59-1.3-2.87,14.71-7.47,29.61-10.54,44.73-9.23,7.57.65,15.57,2.92,24.01,6.81,21.77,10.01,36.73,30.65,41.34,54.08.17.85.92,1.45,1.78,1.43,8.58-.12,16.59.31,24.82,2.64h0Z" fill="#fee8d9"/>
  <path d="M620.13,310.19l-10.01,30.13c-.2.58-.32,1.18-.37,1.78-.78,9.36-.94,16.13-.48,20.28,3.04,27.61,19.67,48.88,44.34,61.42,2.99,1.53,7.57,1.77,9.54,4.26.38.49,1.02.97,1.9,1.42.37.19.77.29,1.19.31l4.85.16c-24.62.41-53.06,6.19-69.07,26.72-3.5,4.5-6.6,9.6-9.28,15.28-2.34,4.95-4.09,10.61-5.27,16.99-2.27,12.28-2.43,24.73-.45,37.35-1.71-5-2.69-9.56-2.96-13.69-.61-9.74-1.34-17.59-2.2-23.52-3.15-14.22-9.21-27-18.19-38.34-2.79-3.53-7.29-7.54-10.53-11.83l5.24-7.37c6.17-1.27,11.63-3.21,16.35-5.8,16.91-9.31,26.93-27.85,30.52-46.45,1.99-10.34,2.95-19.57,2.88-27.7-.04-3.32.11-5.63.42-6.93.73-3.01.52-5.58,1.33-9.19,2.04-8.99,5.46-17.42,10.23-25.3h0l.02.02Z" fill="#fed3ba"/>
  <path d="M754.35,310.97c7.82,10.35,10.29,21.28,12.19,33.92.78,5.12,1.61,8.64,2.47,10.55,3.44,7.57,7.47,13.05,12.11,16.43,12.44,9.09,25.98,10.43,40.59,4,4-1.75,8.75-4.12,14.28-7.08,8.91-4.79,18.17-6.86,27.8-6.21,12.07.81,20.72,1.22,25.95,1.26,12.12,3.2,22.73,8.63,31.84,16.26,20.18,16.91,30.33,43.03,27.85,69.17-3.73,39.09-36.24,70.15-75.68,71.79-23,.94-44.19-6.42-60.26-22.71-11.56-11.73-18.94-24.8-21.98-40.47-.69-3.58-1.35-7.11-2-10.59-.07-2.3-.32-4.46-.77-6.5-1.85-8.31-5.92-15.29-12.21-20.93-10.82-9.72-23.03-11.67-36.64-5.84-4.08,1.75-7.05,3.25-8.89,4.49-.78-.38-1.85-.07-3.19.97-1.27-6.58-3.96-12.52-6.05-17.69-6.05-14.89-7.63-29.79-3.77-45.15,4.47-17.72,14-32.19,28.61-43.41,1.42-1.09,4.01-1.83,7.77-2.24h0l-.02-.02Z" fill="#fefcf8"/>
  <path d="M558.39,431.56l-5.24,7.37c-7.61-5.75-13.54-9.82-17.79-12.21-14.93-8.43-31.33-12.48-49.18-12.17-17.67.31-33.73,4.83-48.19,13.55-4.01-14.15-3.65-27.41,1.06-39.78,10.08-26.5,33.57-43.37,62.39-42.19,23.52.96,44.53,15.9,54.21,36.38,6.94,14.68,7.85,31.04,2.73,49.05h0Z" fill="#fee8d9"/>
  <path d="M789.5,447.29c-18.78-.25-35.26-6.57-49.39-18.93-3.8-3.33-6.84-6.61-9.12-9.86,1.85-1.23,4.82-2.73,8.89-4.49,13.61-5.83,25.82-3.88,36.64,5.84,6.29,5.64,10.37,12.62,12.21,20.93.45,2.04.7,4.21.77,6.5h0Z" fill="#fed3ba"/>
  <path d="M553.15,438.92c3.24,4.29,7.74,8.3,10.53,11.83,8.97,11.34,15.04,24.12,18.19,38.34.32,9.89.78,19.73,1.41,29.52.93,14.61.07,26.6-9.62,38.19-9.78,11.68-21.01,22.38-33.7,32.11-.32.24-.42.66-.25,1.04,2.76,5.79,6.92,15.37.48,20.4-11.43-3.28-21.9-4.61-31.43-3.98-14.5.96-25.74,2.26-40.84-.29-8.47-1.42-16.18-4.02-23.14-7.81-2.77-1.5-6.81-4.02-12.11-7.57-5.8-4.08-10.17-7.63-13.11-10.66-17.88-18.36-27.36-39.76-28.43-64.18-1.04-23.23,5.19-44.18,18.98-62.97,7.63-10.39,16.94-18.66,27.92-24.8,14.46-8.72,30.52-13.25,48.19-13.55,17.85-.31,34.25,3.74,49.18,12.17,4.25,2.39,10.18,6.46,17.79,12.21h-.04Z" fill="#fefcf8"/>
  <path d="M587.02,526.29c6.16,21.52,18.94,37.73,38.35,48.65,6.64,3.73,13.58,6.94,20.83,9.64,2.77,1.94,5.46,3.31,8.02,4.12,5.64,1.78,11.79,3.74,18.42,5.89,6.56,2.12,10.98,2,18.27,3.16,7.88,1.25,16.81,9.36,21.15,15,1.85,2.4,3.97,6.24,6.37,11.51,3.2,7.02,4.96,11,5.3,11.93,3.44,9.58,5.64,22.81,4.19,33.29-3.84,28-23.28,49.1-51.6,52.88-15.04,2-30.93-2.92-42.56-11.84-12.86-9.86-20.22-23.56-22.06-41.12-.04-.41-.15-.81-.29-1.19-2.22-5.67-4.04-9.73-5.47-12.19-6.12-10.5-16.34-14.54-27.58-17.68-.31-.08-.56-.28-.72-.54-.07-.11-.12-.23-.19-.35-.04-.08-.12-.15-.23-.17-.2-.04-.37.05-.54.29-6.85-11.02-16.74-19.21-29.68-24.57l-6.84-2.65c6.44-5.03,2.28-14.61-.48-20.4-.17-.37-.07-.8.25-1.04,12.69-9.73,23.92-20.43,33.7-32.11,9.69-11.59,10.55-23.57,9.62-38.19-.62-9.8-1.09-19.63-1.41-29.52.86,5.93,1.59,13.78,2.2,23.52.27,4.13,1.25,8.68,2.96,13.69h.02Z" fill="#fbf0df"/>
  <path d="M646.2,584.58c9.77,3.31,19.84,5.51,30.21,6.62,8,.86,13.95,1.57,17.83,2.11,5.19.74,11.84,2.62,19.95,5.6,5.99,2.22,12.01,5.51,18.09,9.9,17.73,12.8,29.26,29.81,34.58,51.04.7,2.8,1.54,8.61,2.52,17.42,1.66,14.8,4.87,27.4,9.65,37.8,2.75,6,7.11,12.33,13.09,19,5.35,5.95,12.48,10.75,21.38,14.4-24.13,10.11-47.36,28.35-58.82,52.43-18.94-17.99-45.64-28.73-70.72-30.68-10.61-.84-18.62-1.88-24.04-3.16-14.04-3.32-26.72-9.9-38.03-19.74-12.19-10.62-20.81-23.79-25.88-39.49-2.36-7.35-3.4-11-4.08-18.73-1.02-11.64-3.49-23.39-7.41-35.24-1.91-5.8-4.53-11.23-7.85-16.3.17-.24.35-.33.54-.29.11.03.19.09.23.17.07.12.12.24.19.35.16.27.41.46.72.54,11.24,3.15,21.46,7.18,27.58,17.68,1.43,2.46,3.25,6.52,5.47,12.19.15.38.25.78.29,1.19,1.85,17.56,9.2,31.26,22.06,41.12,11.63,8.92,27.52,13.84,42.56,11.84,28.31-3.78,47.76-24.89,51.6-52.88,1.45-10.49-.76-23.71-4.19-33.29-.33-.93-2.1-4.91-5.3-11.93-2.4-5.27-4.53-9.11-6.37-11.51-4.34-5.64-13.26-13.75-21.15-15-7.29-1.15-11.71-1.04-18.27-3.16-6.64-2.15-12.78-4.12-18.42-5.89-2.56-.81-5.24-2.18-8.02-4.12h0Z" fill="#fee8d9"/>
  <path d="M540.17,610.35l6.84,2.65c-.45,9.93-2.11,19.27-4.96,28.02-.27.84.19,1.74,1.02,2h.04c4.5,1.34,8.69,3.33,12.58,5.95l-17.81-7.09c-.17-.07-.35-.11-.52-.13-25.82-2.76-44.24,17.8-42.94,42.96l-.62-5.91c-.03-.33-.33-.58-.68-.56h0c-15.46,1.08-28.79-2.18-40.01-9.77-25.51-17.27-33.94-49.38-20.46-77.79,5.3,3.54,9.33,6.07,12.11,7.57,6.96,3.78,14.67,6.38,23.14,7.81,15.11,2.55,26.35,1.25,40.84.29,9.53-.62,20,.7,31.43,3.98h0v.02Z" fill="#fed3ba"/>
  <path d="M555.68,648.99c10.5,8.07,18.07,21.54,16.43,34.98-2.11,17.51-11.31,29.11-27.58,34.8-10.11,3.54-21.49,1.71-30.78-3.69-11.14-6.46-17.57-16.58-19.34-30.36-1.3-25.15,17.12-45.72,42.94-42.96.17.03.35.07.52.13l17.81,7.09h0Z" fill="#fbf0df"/>
  <path d="M929.54,770.54c-1.27-.19-2.06-.37-2.34-.57-12.97-9.09-26.91-14.15-41.81-15.2-10.08-.7-18.52-.54-25.3.48-15.32,2.32-28.67-1.02-42.77-4.59-.37-.09-.72-.25-1.01-.49-.68-.52-1.67-.98-2.99-1.37,1.01-.16,1.5-.42,1.49-.8-.35-9.38,1.25-18.57,4.78-27.56.2-.5-.05-1.08-.54-1.26-.04,0-.07-.03-.11-.04-7.42-2.02-13.69-5.88-18.82-11.6-11.16-12.41-13.42-29.15-6.07-44.04,8.06-16.33,27.61-25.74,45.77-20.3,10.67,3.2,18.5,9.7,23.5,19.53,3.31,6.52,4.29,12.32,4.45,19.88.01.54.46.97,1,.96h.04c7.01-.41,14.24-.32,20.69,1.37,18.08,4.74,31.21,15.31,39.37,31.71,1.31,2.61,2.02,4.06,2.14,4.34,6.86,16.51,6.38,33.03-1.46,49.55h-.01ZM821.74,719.57c19.82,4.67,45.52-12.13,44.2-33.69-.03-.37-.35-.66-.72-.65-18.53.41-37.98,16.81-43.92,33.54-.11.32.05.66.37.78.03,0,.04.01.07.01h0Z" fill="#fee8d9"/>
  <path d="M821.3,718.77c5.95-16.74,25.39-33.13,43.92-33.54.37-.01.69.28.72.65,1.31,21.56-24.38,38.36-44.2,33.69-.33-.08-.53-.4-.45-.73,0-.03,0-.04.01-.07h0Z" fill="#fbf0df"/>
  <path d="M813.51,748.48c.33.12.28.23-.19.32,1.31.38,2.31.85,2.99,1.37.29.24.64.4,1.01.49,14.1,3.57,27.45,6.92,42.77,4.59,6.78-1.02,15.23-1.18,25.3-.48,14.91,1.05,28.84,6.11,41.81,15.2.28.2,1.06.38,2.34.57l.37.65c.24.41.57.77.97,1.06,39.77,28.84,51.57,85.57,26.35,128.07-2.93,4.94-7.59,10.62-11.34,16.05-7.02,7.88-15.57,14.48-25.65,19.79-24.37,12.84-49.67,15.11-75.9,6.78-4.15-1.33-8.23-2.63-12.23-3.89l-24.42-17.8c-9.5-9.78-17.07-21.03-22.7-33.7-1.33-2.99-3.17-8.72-5.55-17.2-.11-.36-.17-.72-.19-1.08-.12-2.06-.52-4.02-1.21-5.89.07-19.63-3.49-35.63-14.61-51.81-1.58-2.28-4.49-5.84-8.75-10.66,11.46-24.08,34.69-42.32,58.82-52.43h.01Z" fill="#fefcf8"/>
  <path d="M562.9,913.2c.03,4.08,1.47,9.16,4.35,15.24,6.11,12.88,14.81,22.75,28.5,24.9,9.32,1.45,18.01.2,26.63-3.64,2.27-1.01,4.54-2,6.84-2.97-8.77,23.93-20.51,45.62-33.25,67.54-7.67-17.95-23.87-30.13-43.79-26.93-11.8,1.9-19.19,7-30.17,13.94-3.44,2.18-9.98,4.82-19.63,7.91-12.92,3.38-25.26,4-37.01,1.83-28.82-5.3-53.02-24.88-64.23-52.09-5.83-14.15-7.5-29.48-4.99-46,6.89-45.32,49.46-76.58,94.3-70.62,16.82,2.23,31.75,8.97,44.8,20.23,15.17,13.08,24.38,29.96,27.66,50.65h-.01Z" fill="#fefcf8"/>
  <path d="M778.05,863.38c.69,1.87,1.09,3.84,1.21,5.89.01.36.08.72.19,1.08,2.38,8.48,4.22,14.22,5.55,17.2,5.63,12.68,13.19,23.92,22.7,33.7-1.26,6.64-1.71,12.81-1.35,18.52.03.52.46.9.98.88h0l24.8-1.59c4,1.26,8.07,2.56,12.23,3.89,26.23,8.32,51.53,6.05,75.9-6.78,10.08-5.31,18.62-11.91,25.65-19.79,2.88,14.43,1.62,28.15-3.8,41.19-5,12-11.83,22.22-22.73,29.83-5.54,3.88-10.77,6.96-15.66,9.25-13.9,6.49-28.66,7.85-44.26,4.08-.21-.05-.42-.04-.62.03-.44.16-.58.36-.44.61-1.82-4.29-4.41-8.12-7.74-11.52-7.58-7.71-16.88-11.87-27.92-12.46-8.51-10.63-13.71-22.54-15.6-35.71-.08-.54-.57-.93-1.12-.85-.04,0-.08.01-.12.03-10.13,2.69-19.99,6.54-27.49,13.79-4,3.88-7.57,8.14-10.71,12.8-14.04-15.13-27.66-26.6-47.43-33.46-1.94-.68-4.05-1-6.35-.96-2.14.04-4.3.05-6.5.04,8.91-.42,17.57-1.92,26-4.5,25.75-7.87,41.26-30.21,43.77-56.43.28-2.85.56-5.77.86-8.73h0v-.03Z" fill="#fed3ba"/>
  <path d="M562.9,913.2c.45,1.57,1.08,2.31,1.86,2.22,15.27-1.79,29.3.73,42.08,7.57,9.12,4.88,17.35,11.84,24.69,20.88l-2.31,2.87c-2.3.97-4.57,1.96-6.84,2.97-8.61,3.84-17.31,5.08-26.63,3.64-13.69-2.15-22.39-12.03-28.5-24.9-2.88-6.08-4.33-11.16-4.35-15.24h0Z" fill="#fee8d9"/>
  <path d="M832.12,939.06l-24.8,1.59c-.52.03-.96-.36-.98-.88h0c-.36-5.71.09-11.88,1.35-18.52l24.42,17.8h.01Z" fill="#fbf0df"/>
  <path d="M707.42,933.04c2.2,0,4.37,0,6.5-.04,2.3-.04,4.41.28,6.35.96,19.77,6.86,33.38,18.33,47.43,33.46-8.19,13.74-11.51,28.53-12.93,44.27-.78,8.72-1.53,14.34-2.22,16.84-3.44,12.45-8.89,23.11-16.34,31.96-34.45,41-95.55,36.46-125.63-6.5-.28-.38-.57-.5-.89-.38.19-.9.07-1.67-.36-2.31-5.16-7.75-8.52-15.98-10.09-24.7-.82-4.61-1.98-8.26-3.28-12.33,12.74-21.92,24.48-43.61,33.25-67.54l2.31-2.87c.88.33,1.63.31,2.26-.09,12.64-8,26.48-12.27,41.55-12.77,3.12-.09,10.08.54,20.89,1.91,1.61.21,5.34.25,11.19.13h.01Z" fill="#fbf0df"/>
  <path d="M858.39,1001.35c6.12,18.4,2.51,33.6-10.86,45.58-14.23,12.76-38.35,12-52.1-1.58-7.43-7.34-11.38-16.19-11.83-26.55-1.01-23.2,16.45-40.09,39.13-41.44,11.03.6,20.34,4.75,27.92,12.46,3.33,3.4,5.92,7.23,7.74,11.52h0Z" fill="#fbf0df"/>
  <path d="M595.97,1014.27c1.3,4.08,2.46,7.73,3.28,12.33,1.57,8.72,4.92,16.95,10.09,24.7.42.64.54,1.41.36,2.31-24.21,13.34-48.25,13.58-72.13.72-17.73-9.57-29.47-24.61-35.19-45.15,9.65-3.09,16.19-5.73,19.63-7.91,10.98-6.94,18.37-12.04,30.17-13.94,19.92-3.2,36.12,8.99,43.79,26.93h0Z" fill="#fed3ba"/>
</svg>