<?xml version="1.0" encoding="UTF-8"?>
<svg id="Layer_1" xmlns="http://www.w3.org/2000/svg" xmlns:xlink="http://www.w3.org/1999/xlink" version="1.1" viewBox="0 0 8570.5 1826.8">
  <!-- Generator: Adobe Illustrator 29.8.2, SVG Export Plug-In . SVG Version: 2.1.1 Build 3)  -->
  <defs>
    <style>
      .st0 {
        fill: #fed3ba;
      }

      .st1 {
        fill: #fee8d9;
      }

      .st2 {
        fill: url(#linear-gradient);
      }

      .st3, .st4 {
        isolation: isolate;
      }

      .st4 {
        fill: #424242;
        font-family: Roboto-Regular, Roboto;
        font-size: 300px;
      }

      .st5 {
        fill: #fefcf8;
      }

      .st6 {
        fill: #fff;
      }

      .st7 {
        fill: #fbf0df;
      }
    </style>
    <linearGradient id="linear-gradient" x1="3375.9" y1="2709.4" x2="3377.3" y2="2708" gradientTransform="translate(-3463628.3 2779905.7) scale(1026 -1026)" gradientUnits="userSpaceOnUse">
      <stop offset="0" stop-color="#fb923c"/>
      <stop offset="1" stop-color="#ea580c"/>
    </linearGradient>
  </defs>
  <rect class="st6" width="8570.5" height="1826.8"/>
  <path d="M1821.3,957c58.3-32.9,116.6-65.8,176-99.3,2.9,5.3,5.7,9.9,8,14.7,31.5,66.4,84.1,102.3,156.9,110.2,39,4.2,77.4,4.4,115-8.1,30.4-10.2,49.2-29.9,51.5-63,2.4-34.1-15.5-55.9-45.1-67-44.6-16.6-90-31.4-135.7-45.1-64.9-19.4-130.7-35.1-188.2-74.1-81.6-55.4-111.2-134.2-103.1-227.9,10.3-119.1,75.9-198,188.5-236.2,104.5-35.4,209.1-31.1,310.3,12.7,73.6,31.9,124.5,88.3,159.4,163.7-56.2,34.3-112.4,68.6-168.7,103-13.6-18.3-25.1-35.5-38.3-51.2-44.2-52.3-141.6-70.7-202.5-39.3-24.8,12.8-39.7,32.1-40.9,60.3-1.2,28,12.5,49.3,36.8,60,33.4,14.7,68.3,26,103,37.6,59.6,20,121.3,34.9,178.9,59.5,137.4,58.8,190.7,192.6,137.6,332.9-29.5,78-86.2,128.7-163.2,154.5-118.2,39.6-237.1,36.6-354.1-7.2-84.6-31.7-141.7-91.7-174.8-175.3-1.6-4.1-4.9-7.6-7.4-11.4v-4.2h0Z"/>
  <path d="M7182.1,1090.4v72.5h-201.7V227.5h201.8v351.3c4.8-2.5,6.9-3.1,8.1-4.4,73.7-78.9,166.8-95.1,267.1-77,135.7,24.6,225.7,105.9,264.6,237.5,39.9,135,10,258.4-93.7,353.4-100,91.6-220.7,118.6-350.9,67.9-29.4-11.4-53.9-35.3-80.6-53.6-4.3-2.9-8-6.6-14.7-12.3h0ZM7372.6,672.9c-66.9-.2-117.2,20.6-148.4,56.1-60.6,68.8-52.3,174.5,18.2,231.4,73.7,59.5,199,47.5,252.5-25.1,40.1-54.4,45.7-113.6,16.1-174.1-30.3-62.1-85.1-85.3-138.5-88.2h0Z"/>
  <path d="M2833.9,575.3c5.6-3,7.8-3.5,8.8-4.9,70.1-91.3,227.4-98.7,322.7-46.8,97.3,53,151.4,136.4,168.1,243.4,19,120.9-5.9,231.3-91.8,323.3-103.8,111.2-294.6,125.2-399.2,10.4-1.4-1.5-3.1-2.6-7-5.8v300.3h-189.2V509.5c22.8,0,44.7,0,66.7,0,34.6,0,69.3.5,103.9,0,12.4-.2,17.7,3.7,17.1,16.5-.7,15.5-.2,31.1-.2,49.3h0ZM2839.2,837.3c1.3,93.1,67.4,160.9,155.3,159.6,90.8-1.4,155.7-70.8,154.6-165.3-1.1-90.6-68.2-159.3-154.8-158.4-91.9.9-156.4,69.2-155.1,164.1h0Z"/>
  <path d="M6613.5,577.3v-65.2h203.7v650.9h-203.2v-67.5c-32.7,21.3-60.9,46.8-94.1,59.9-126.1,50-244,26.5-345.6-59-186.4-156.7-148.6-461.6,68.2-568.9,71.9-35.6,148.3-43.7,226.8-29.7,55.8,10,101.5,38.9,144.1,79.4h0ZM6611.5,835.1c-.3-91.5-76.4-162.4-174.7-162.8-98.1-.4-174,70.5-174.1,162.7-.1,92.6,74.2,163.6,171.1,163.2,103.4-.3,178-68.9,177.8-163.1h0Z"/>
  <path d="M4263.5,572.2c0-14,.4-30.3-.1-46.5-.4-11,2.7-16.5,15-16.4,56.7.4,113.4.2,172.1.2v652.9h-186.3v-68.5c-18.1,15.4-32.9,29.8-49.3,41.8-95.5,69.9-229.9,52-313.4-10-120.9-89.8-158.1-213.3-136.6-357.8,14-94,57.4-171.9,137.7-224.9,88.7-58.6,184.3-70.1,282.3-26.1,28.7,12.9,52.5,36.5,78.7,55.3h0ZM4261.2,834.1c-.3-89.7-68-161.1-152.8-161.2-92.4,0-157.7,66.8-157.6,161.6,0,91.4,67.3,162.9,153.3,162.9,89.8,0,157.4-70.2,157-163.2h0Z"/>
  <path d="M5980.6,968.4v194.4h-628.5V264.7h212.9v703.8h415.6Z"/>
  <path d="M8387,629c-54.9,29.5-107.3,57.6-160.7,86.3-34.6-51-83.1-66.9-141.4-57.3-7.4,1.2-16.4,2.3-21.4,7-8.9,8.3-21,19.1-21.3,29.2-.3,9.9,10.4,25.8,19.8,29.3,36.2,13.5,73.9,22.7,110.9,34.1,42.2,13,86,22.8,126.1,40.7,149.9,67.3,121.1,249.2,35.3,315.4-44.6,34.5-95,53.6-150.1,61.1-96.8,13.1-190.8,6.2-278.5-41.8-47.9-26.2-80.3-66.4-103.5-116.9,57.1-28.7,113.2-56.9,171.3-86.2,3.5,5.9,7.1,11.5,10.3,17.2,31.7,56.2,129.5,85.2,186.3,53.3,10.2-5.7,20-20.8,20.6-32.1.6-10.2-9.3-26.6-18.7-30.6-29.7-12.6-61.3-20.9-92.2-30.6-46.1-14.5-93.6-25.7-138.3-43.9-144.6-58.8-138.2-228.8-45.9-303.7,52.4-42.5,112.7-60.9,178.1-65.9,89.8-6.8,175.8,3.7,251,59.2,26.6,19.6,47,44.2,62.3,76.1h0Z"/>
  <path d="M5018.7,985.7v178.3c-61.3,10-122.3,13.1-183.5,2.7-17-2.9-34.2-6.5-50.2-12.7-65.3-25.1-97.6-76-102.7-143.2-4.1-53.7-3.1-107.8-3.7-161.7-.5-49.8-.1-99.6-.1-152.2h-115.2v-186.8h115.5c0-36.4,1-70.8-.4-105-.8-19.4,4-29,24.8-34.3,46.9-11.8,92.9-27.2,139.3-41.1,7-2.1,14.3-3.5,24.1-5.9v185.2h151.2v187.4h-148.4c-.7,7.9-1.6,13.2-1.6,18.6-.1,66.4-.6,132.9,0,199.3.4,54.1,21.8,75.1,76.2,75.1,24.1,0,48.3-2.4,75-3.8h0Z"/>
  <path d="M3456,215.5h188.7v946.4h-188.7V215.5Z"/>
  <g class="st3">
    <text class="st4" transform="translate(1821.3 1689.3)"><tspan x="0" y="0">by ROCK</tspan></text>
  </g>
  <rect class="st2" x="68.7" y="93.2" width="1361.9" height="1361.9" rx="339.8" ry="339.8"/>
  <path class="st7" d="M821.8,401.3c0,.3.4,1.2,1.3,2.9-3.8.4-6.3,1.1-7.8,2.2-14.6,11.2-24.1,25.7-28.6,43.4-3.9,15.4-2.3,30.2,3.8,45.1,2.1,5.2,4.8,11.1,6,17.7-17.4,10.4-36.3,13.9-56.7,10.5l-4.8-.2c-.4,0-.8-.1-1.2-.3-.9-.5-1.5-.9-1.9-1.4-2-2.5-6.6-2.7-9.5-4.3-24.7-12.5-41.3-33.8-44.3-61.4-.5-4.1-.3-10.9.5-20.3,0-.6.2-1.2.4-1.8l10-30.1c9-13.5,20.3-23.4,34.1-29.7,29.3-13.4,61.9-8.3,86.3,13.1,3.7,3.2,7.8,8.1,12.5,14.6h0Z"/>
  <ellipse class="st7" cx="631" cy="412.5" rx="24.4" ry="24.7" transform="translate(-11.3 17.8) rotate(-1.6)"/>
  <path class="st1" d="M958.5,457.1c-5.2,0-13.9-.5-26-1.3-9.6-.6-18.9,1.4-27.8,6.2-5.5,3-10.3,5.3-14.3,7.1-14.6,6.4-28.2,5.1-40.6-4-4.6-3.4-8.7-8.9-12.1-16.4-.9-1.9-1.7-5.4-2.5-10.5-1.9-12.6-4.4-23.6-12.2-33.9-.9-1.6-1.4-2.6-1.3-2.9,14.7-7.5,29.6-10.5,44.7-9.2,7.6.6,15.6,2.9,24,6.8,21.8,10,36.7,30.6,41.3,54.1.2.9.9,1.5,1.8,1.4,8.6-.1,16.6.3,24.8,2.6h0Z"/>
  <path class="st0" d="M688.9,403.4l-10,30.1c-.2.6-.3,1.2-.4,1.8-.8,9.4-.9,16.1-.5,20.3,3,27.6,19.7,48.9,44.3,61.4,3,1.5,7.6,1.8,9.5,4.3.4.5,1,1,1.9,1.4.4.2.8.3,1.2.3l4.8.2c-24.6.4-53.1,6.2-69.1,26.7-3.5,4.5-6.6,9.6-9.3,15.3-2.3,5-4.1,10.6-5.3,17-2.3,12.3-2.4,24.7-.5,37.3-1.7-5-2.7-9.6-3-13.7-.6-9.7-1.3-17.6-2.2-23.5-3.2-14.2-9.2-27-18.2-38.3-2.8-3.5-7.3-7.5-10.5-11.8l5.2-7.4c6.2-1.3,11.6-3.2,16.3-5.8,16.9-9.3,26.9-27.9,30.5-46.5,2-10.3,3-19.6,2.9-27.7,0-3.3.1-5.6.4-6.9.7-3,.5-5.6,1.3-9.2,2-9,5.5-17.4,10.2-25.3h0Z"/>
  <path class="st5" d="M823.1,404.2c7.8,10.4,10.3,21.3,12.2,33.9.8,5.1,1.6,8.6,2.5,10.5,3.4,7.6,7.5,13,12.1,16.4,12.4,9.1,26,10.4,40.6,4,4-1.8,8.8-4.1,14.3-7.1,8.9-4.8,18.2-6.9,27.8-6.2,12.1.8,20.7,1.2,26,1.3,12.1,3.2,22.7,8.6,31.8,16.3,20.2,16.9,30.3,43,27.8,69.2-3.7,39.1-36.2,70.2-75.7,71.8-23,.9-44.2-6.4-60.3-22.7-11.6-11.7-18.9-24.8-22-40.5-.7-3.6-1.3-7.1-2-10.6,0-2.3-.3-4.5-.8-6.5-1.8-8.3-5.9-15.3-12.2-20.9-10.8-9.7-23-11.7-36.6-5.8-4.1,1.8-7,3.2-8.9,4.5-.8-.4-1.8,0-3.2,1-1.3-6.6-4-12.5-6-17.7-6-14.9-7.6-29.8-3.8-45.1,4.5-17.7,14-32.2,28.6-43.4,1.4-1.1,4-1.8,7.8-2.2h0Z"/>
  <path class="st1" d="M627.1,524.8l-5.2,7.4c-7.6-5.8-13.5-9.8-17.8-12.2-14.9-8.4-31.3-12.5-49.2-12.2-17.7.3-33.7,4.8-48.2,13.5-4-14.1-3.6-27.4,1.1-39.8,10.1-26.5,33.6-43.4,62.4-42.2,23.5,1,44.5,15.9,54.2,36.4,6.9,14.7,7.8,31,2.7,49h0Z"/>
  <path class="st0" d="M858.2,540.5c-18.8-.2-35.3-6.6-49.4-18.9-3.8-3.3-6.8-6.6-9.1-9.9,1.8-1.2,4.8-2.7,8.9-4.5,13.6-5.8,25.8-3.9,36.6,5.8,6.3,5.6,10.4,12.6,12.2,20.9.5,2,.7,4.2.8,6.5h0Z"/>
  <path class="st5" d="M621.9,532.2c3.2,4.3,7.7,8.3,10.5,11.8,9,11.3,15,24.1,18.2,38.3.3,9.9.8,19.7,1.4,29.5.9,14.6,0,26.6-9.6,38.2-9.8,11.7-21,22.4-33.7,32.1-.3.2-.4.7-.2,1,2.8,5.8,6.9,15.4.5,20.4-11.4-3.3-21.9-4.6-31.4-4-14.5,1-25.7,2.3-40.8-.3-8.5-1.4-16.2-4-23.1-7.8-2.8-1.5-6.8-4-12.1-7.6-5.8-4.1-10.2-7.6-13.1-10.7-17.9-18.4-27.4-39.8-28.4-64.2-1-23.2,5.2-44.2,19-63,7.6-10.4,16.9-18.7,27.9-24.8,14.5-8.7,30.5-13.2,48.2-13.5,17.9-.3,34.2,3.7,49.2,12.2,4.2,2.4,10.2,6.5,17.8,12.2h0Z"/>
  <path class="st7" d="M655.7,619.5c6.2,21.5,18.9,37.7,38.3,48.7,6.6,3.7,13.6,6.9,20.8,9.6,2.8,1.9,5.5,3.3,8,4.1,5.6,1.8,11.8,3.7,18.4,5.9,6.6,2.1,11,2,18.3,3.2,7.9,1.2,16.8,9.4,21.2,15,1.8,2.4,4,6.2,6.4,11.5,3.2,7,5,11,5.3,11.9,3.4,9.6,5.6,22.8,4.2,33.3-3.8,28-23.3,49.1-51.6,52.9-15,2-30.9-2.9-42.6-11.8-12.9-9.9-20.2-23.6-22.1-41.1,0-.4-.2-.8-.3-1.2-2.2-5.7-4-9.7-5.5-12.2-6.1-10.5-16.3-14.5-27.6-17.7-.3,0-.6-.3-.7-.5,0-.1-.1-.2-.2-.3,0,0-.1-.2-.2-.2-.2,0-.4,0-.5.3-6.8-11-16.7-19.2-29.7-24.6l-6.8-2.7c6.4-5,2.3-14.6-.5-20.4-.2-.4,0-.8.2-1,12.7-9.7,23.9-20.4,33.7-32.1,9.7-11.6,10.5-23.6,9.6-38.2-.6-9.8-1.1-19.6-1.4-29.5.9,5.9,1.6,13.8,2.2,23.5.3,4.1,1.2,8.7,3,13.7h0Z"/>
  <path class="st1" d="M714.9,677.8c9.8,3.3,19.8,5.5,30.2,6.6,8,.9,14,1.6,17.8,2.1,5.2.7,11.8,2.6,20,5.6,6,2.2,12,5.5,18.1,9.9,17.7,12.8,29.3,29.8,34.6,51,.7,2.8,1.5,8.6,2.5,17.4,1.7,14.8,4.9,27.4,9.7,37.8,2.8,6,7.1,12.3,13.1,19,5.3,6,12.5,10.8,21.4,14.4-24.1,10.1-47.4,28.3-58.8,52.4-18.9-18-45.6-28.7-70.7-30.7-10.6-.8-18.6-1.9-24-3.2-14-3.3-26.7-9.9-38-19.7-12.2-10.6-20.8-23.8-25.9-39.5-2.4-7.3-3.4-11-4.1-18.7-1-11.6-3.5-23.4-7.4-35.2-1.9-5.8-4.5-11.2-7.8-16.3.2-.2.3-.3.5-.3.1,0,.2,0,.2.2,0,.1.1.2.2.3.2.3.4.5.7.5,11.2,3.2,21.5,7.2,27.6,17.7,1.4,2.5,3.2,6.5,5.5,12.2.2.4.2.8.3,1.2,1.8,17.6,9.2,31.3,22.1,41.1,11.6,8.9,27.5,13.8,42.6,11.8,28.3-3.8,47.8-24.9,51.6-52.9,1.5-10.5-.8-23.7-4.2-33.3-.3-.9-2.1-4.9-5.3-11.9-2.4-5.3-4.5-9.1-6.4-11.5-4.3-5.6-13.3-13.8-21.2-15-7.3-1.2-11.7-1-18.3-3.2-6.6-2.2-12.8-4.1-18.4-5.9-2.6-.8-5.2-2.2-8-4.1h0Z"/>
  <path class="st0" d="M608.9,703.6l6.8,2.7c-.5,9.9-2.1,19.3-5,28-.3.8.2,1.7,1,2h0c4.5,1.3,8.7,3.3,12.6,6l-17.8-7.1c-.2,0-.3-.1-.5-.1-25.8-2.8-44.2,17.8-42.9,43l-.6-5.9c0-.3-.3-.6-.7-.6h0c-15.5,1.1-28.8-2.2-40-9.8-25.5-17.3-33.9-49.4-20.5-77.8,5.3,3.5,9.3,6.1,12.1,7.6,7,3.8,14.7,6.4,23.1,7.8,15.1,2.5,26.4,1.2,40.8.3,9.5-.6,20,.7,31.4,4h0Z"/>
  <path class="st7" d="M624.4,742.2c10.5,8.1,18.1,21.5,16.4,35-2.1,17.5-11.3,29.1-27.6,34.8-10.1,3.5-21.5,1.7-30.8-3.7-11.1-6.5-17.6-16.6-19.3-30.4-1.3-25.2,17.1-45.7,42.9-43,.2,0,.3,0,.5.1l17.8,7.1h0Z"/>
  <path class="st1" d="M998.3,863.8c-1.3-.2-2.1-.4-2.3-.6-13-9.1-26.9-14.2-41.8-15.2-10.1-.7-18.5-.5-25.3.5-15.3,2.3-28.7-1-42.8-4.6-.4,0-.7-.2-1-.5-.7-.5-1.7-1-3-1.4,1-.2,1.5-.4,1.5-.8-.3-9.4,1.2-18.6,4.8-27.6.2-.5,0-1.1-.5-1.3,0,0,0,0-.1,0-7.4-2-13.7-5.9-18.8-11.6-11.2-12.4-13.4-29.2-6.1-44,8.1-16.3,27.6-25.7,45.8-20.3,10.7,3.2,18.5,9.7,23.5,19.5,3.3,6.5,4.3,12.3,4.5,19.9,0,.5.5,1,1,1h0c7-.4,14.2-.3,20.7,1.4,18.1,4.7,31.2,15.3,39.4,31.7,1.3,2.6,2,4.1,2.1,4.3,6.9,16.5,6.4,33-1.5,49.5h0ZM890.5,812.8c19.8,4.7,45.5-12.1,44.2-33.7,0-.4-.3-.7-.7-.7-18.5.4-38,16.8-43.9,33.5-.1.3,0,.7.4.8,0,0,0,0,0,0h0Z"/>
  <path class="st7" d="M890,812c6-16.7,25.4-33.1,43.9-33.5.4,0,.7.3.7.7,1.3,21.6-24.4,38.4-44.2,33.7-.3,0-.5-.4-.5-.7,0,0,0,0,0,0h0Z"/>
  <path class="st5" d="M882.2,841.7c.3.1.3.2-.2.3,1.3.4,2.3.8,3,1.4.3.2.6.4,1,.5,14.1,3.6,27.5,6.9,42.8,4.6,6.8-1,15.2-1.2,25.3-.5,14.9,1,28.8,6.1,41.8,15.2.3.2,1.1.4,2.3.6l.4.7c.2.4.6.8,1,1.1,39.8,28.8,51.6,85.6,26.3,128.1-2.9,4.9-7.6,10.6-11.3,16-7,7.9-15.6,14.5-25.7,19.8-24.4,12.8-49.7,15.1-75.9,6.8-4.2-1.3-8.2-2.6-12.2-3.9l-24.4-17.8c-9.5-9.8-17.1-21-22.7-33.7-1.3-3-3.2-8.7-5.5-17.2-.1-.4-.2-.7-.2-1.1-.1-2.1-.5-4-1.2-5.9,0-19.6-3.5-35.6-14.6-51.8-1.6-2.3-4.5-5.8-8.8-10.7,11.5-24.1,34.7-42.3,58.8-52.4h0Z"/>
  <path class="st5" d="M631.6,1006.4c0,4.1,1.5,9.2,4.3,15.2,6.1,12.9,14.8,22.8,28.5,24.9,9.3,1.5,18,.2,26.6-3.6,2.3-1,4.5-2,6.8-3-8.8,23.9-20.5,45.6-33.2,67.5-7.7-18-23.9-30.1-43.8-26.9-11.8,1.9-19.2,7-30.2,13.9-3.4,2.2-10,4.8-19.6,7.9-12.9,3.4-25.3,4-37,1.8-28.8-5.3-53-24.9-64.2-52.1-5.8-14.2-7.5-29.5-5-46,6.9-45.3,49.5-76.6,94.3-70.6,16.8,2.2,31.8,9,44.8,20.2,15.2,13.1,24.4,30,27.7,50.7h0Z"/>
  <path class="st0" d="M846.8,956.6c.7,1.9,1.1,3.8,1.2,5.9,0,.4,0,.7.2,1.1,2.4,8.5,4.2,14.2,5.5,17.2,5.6,12.7,13.2,23.9,22.7,33.7-1.3,6.6-1.7,12.8-1.3,18.5,0,.5.5.9,1,.9h0l24.8-1.6c4,1.3,8.1,2.6,12.2,3.9,26.2,8.3,51.5,6,75.9-6.8,10.1-5.3,18.6-11.9,25.7-19.8,2.9,14.4,1.6,28.2-3.8,41.2-5,12-11.8,22.2-22.7,29.8-5.5,3.9-10.8,7-15.7,9.2-13.9,6.5-28.7,7.8-44.3,4.1-.2,0-.4,0-.6,0-.4.2-.6.4-.4.6-1.8-4.3-4.4-8.1-7.7-11.5-7.6-7.7-16.9-11.9-27.9-12.5-8.5-10.6-13.7-22.5-15.6-35.7,0-.5-.6-.9-1.1-.8,0,0,0,0-.1,0-10.1,2.7-20,6.5-27.5,13.8-4,3.9-7.6,8.1-10.7,12.8-14-15.1-27.7-26.6-47.4-33.5-1.9-.7-4-1-6.3-1-2.1,0-4.3,0-6.5,0,8.9-.4,17.6-1.9,26-4.5,25.8-7.9,41.3-30.2,43.8-56.4.3-2.8.6-5.8.9-8.7h0Z"/>
  <path class="st1" d="M631.6,1006.4c.5,1.6,1.1,2.3,1.9,2.2,15.3-1.8,29.3.7,42.1,7.6,9.1,4.9,17.3,11.8,24.7,20.9l-2.3,2.9c-2.3,1-4.6,2-6.8,3-8.6,3.8-17.3,5.1-26.6,3.6-13.7-2.2-22.4-12-28.5-24.9-2.9-6.1-4.3-11.2-4.3-15.2h0Z"/>
  <path class="st7" d="M900.8,1032.3l-24.8,1.6c-.5,0-1-.4-1-.9h0c-.4-5.7,0-11.9,1.3-18.5l24.4,17.8h0Z"/>
  <path class="st7" d="M776.1,1026.3c2.2,0,4.4,0,6.5,0,2.3,0,4.4.3,6.3,1,19.8,6.9,33.4,18.3,47.4,33.5-8.2,13.7-11.5,28.5-12.9,44.3-.8,8.7-1.5,14.3-2.2,16.8-3.4,12.4-8.9,23.1-16.3,32-34.5,41-95.5,36.5-125.6-6.5-.3-.4-.6-.5-.9-.4.2-.9,0-1.7-.4-2.3-5.2-7.8-8.5-16-10.1-24.7-.8-4.6-2-8.3-3.3-12.3,12.7-21.9,24.5-43.6,33.2-67.5l2.3-2.9c.9.3,1.6.3,2.3,0,12.6-8,26.5-12.3,41.5-12.8,3.1,0,10.1.5,20.9,1.9,1.6.2,5.3.2,11.2.1h0Z"/>
  <path class="st7" d="M927.1,1094.6c6.1,18.4,2.5,33.6-10.9,45.6-14.2,12.8-38.3,12-52.1-1.6-7.4-7.3-11.4-16.2-11.8-26.5-1-23.2,16.5-40.1,39.1-41.4,11,.6,20.3,4.8,27.9,12.5,3.3,3.4,5.9,7.2,7.7,11.5h0Z"/>
  <path class="st0" d="M664.7,1107.5c1.3,4.1,2.5,7.7,3.3,12.3,1.6,8.7,4.9,16.9,10.1,24.7.4.6.5,1.4.4,2.3-24.2,13.3-48.2,13.6-72.1.7-17.7-9.6-29.5-24.6-35.2-45.2,9.7-3.1,16.2-5.7,19.6-7.9,11-6.9,18.4-12,30.2-13.9,19.9-3.2,36.1,9,43.8,26.9h0Z"/>
</svg>